# Blender v2.83.3 OBJ File: 'Vhstapes.blend'
# www.blender.org
mtllib Candy2.mtl
o Candy2_Cube.042
v -0.183087 -0.088441 0.275464
v -0.162473 0.003380 0.200148
v -0.183087 -0.088441 -0.481728
v -0.162473 0.003380 -0.406412
v 0.239660 -0.088441 0.275464
v 0.219045 0.003380 0.200148
v 0.239660 -0.088441 -0.481728
v 0.219045 0.003380 -0.406412
vt 0.182401 0.446256
vt 0.157300 0.446256
vt 0.157300 0.421156
vt 0.182401 0.421156
vt 0.156547 0.472109
vt 0.131447 0.472109
vt 0.131447 0.447009
vt 0.156547 0.447009
vt 0.156547 0.446256
vt 0.131447 0.446256
vt 0.131447 0.421156
vt 0.156547 0.421156
vt 0.157300 0.472109
vt 0.157300 0.447009
vt 0.182401 0.447009
vt 0.182401 0.472109
vt 0.138985 0.429612
vt 0.178667 0.429612
vt 0.178667 0.469294
vt 0.138985 0.469294
vt 0.508038 0.803779
vt 0.508038 0.620112
vt 0.873141 0.620112
vt 0.873141 0.803779
vn -0.9757 0.2191 0.0000
vn 0.0000 0.6342 -0.7732
vn 0.9757 0.2191 0.0000
vn 0.0000 0.6342 0.7732
vn 0.0000 -1.0000 0.0000
vn 0.0000 1.0000 0.0000
usemtl Colors_and_Textures.028
s off
f 1/1/1 2/2/1 4/3/1 3/4/1
f 3/5/2 4/6/2 8/7/2 7/8/2
f 7/9/3 8/10/3 6/11/3 5/12/3
f 5/13/4 6/14/4 2/15/4 1/16/4
f 3/17/5 7/18/5 5/19/5 1/20/5
f 8/21/6 4/22/6 2/23/6 6/24/6
