# Blender v2.83.3 OBJ File: 'Vhstapes.blend'
# www.blender.org
mtllib CandyShelf.mtl
o Candy_shelf_Cube.025
v -0.713782 -0.061153 1.000000
v -0.713782 0.217159 1.000000
v -0.713782 -0.061153 -1.000000
v -0.713782 0.217159 -1.000000
v 1.380249 -0.061153 1.000000
v 1.380249 0.217159 1.000000
v 1.380249 -0.061153 -1.000000
v 1.380249 0.217159 -1.000000
v -0.547021 -0.061153 -1.000000
v -0.547021 0.217159 -1.000000
v -0.547021 -0.061153 1.000000
v -0.547021 0.217159 1.000000
v -0.713782 2.748415 1.000000
v -0.713782 2.748415 -1.000000
v -0.547021 2.748415 1.000000
v -0.547021 2.748415 -1.000000
v -0.547021 1.482787 -1.000000
v -0.547021 1.482787 1.000000
v -0.713782 1.482787 1.000000
v -0.713782 1.482787 -1.000000
v -0.547021 0.849973 1.000000
v -0.713782 0.849973 -1.000000
v -0.547021 0.849973 -1.000000
v -0.713782 0.849973 1.000000
v -0.547021 0.760277 1.000000
v -0.713782 0.760277 -1.000000
v -0.547021 0.760277 -1.000000
v -0.713782 0.760277 1.000000
v -0.547021 1.393091 -1.000000
v -0.713782 1.393091 1.000000
v -0.547021 1.393091 1.000000
v -0.713782 1.393091 -1.000000
v -0.547021 2.115601 -1.000000
v -0.713782 2.115601 1.000000
v -0.547021 2.115601 1.000000
v -0.713782 2.115601 -1.000000
v -0.547021 2.025905 1.000000
v -0.713782 2.025905 -1.000000
v -0.547021 2.025905 -1.000000
v -0.713782 2.025905 1.000000
v 0.263984 1.393091 -1.000000
v 0.263984 1.482787 -1.000000
v 0.263984 1.482787 1.000000
v 0.263984 0.760277 -1.000000
v 0.263984 0.849973 -1.000000
v 0.263984 0.849973 1.000000
v 0.263984 0.760277 1.000000
v 0.263984 1.393091 1.000000
v 0.263984 2.025905 -1.000000
v 0.263984 2.115601 -1.000000
v 0.263984 2.115601 1.000000
v 0.263984 2.025905 1.000000
vt 0.010121 0.815240
vt 0.017724 0.815240
vt 0.017724 0.839134
vt 0.010121 0.839134
vt 0.025784 0.840703
vt 0.033387 0.840703
vt 0.033387 0.863729
vt 0.025784 0.863729
vt 0.010121 0.839851
vt 0.017724 0.839851
vt 0.017724 0.863746
vt 0.010121 0.863746
vt 0.025556 0.840703
vt 0.017952 0.840703
vt 0.017952 0.838711
vt 0.025556 0.838711
vt 0.058856 0.840703
vt 0.058856 0.863729
vt 0.033876 0.863729
vt 0.033876 0.840703
vt 0.030915 0.944804
vt 0.030915 0.963969
vt 0.018265 0.963969
vt 0.018265 0.944804
vt 0.004065 0.939519
vt 0.058232 0.939519
vt 0.058232 0.993687
vt 0.004065 0.993687
vt 0.058856 0.838711
vt 0.033876 0.838711
vt 0.025556 0.863729
vt 0.017952 0.863729
vt 0.025784 0.838711
vt 0.033387 0.838711
vt 0.056026 0.833303
vt 0.052697 0.833303
vt 0.052697 0.821110
vt 0.056026 0.821110
vt 0.052048 0.829872
vt 0.012124 0.829872
vt 0.012124 0.821434
vt 0.052048 0.821434
vt 0.096740 0.945470
vt 0.077116 0.945470
vt 0.077116 0.987581
vt 0.096740 0.987581
vt 0.117053 0.945446
vt 0.097429 0.945493
vt 0.097529 0.987604
vt 0.117153 0.987558
vt 0.116939 0.897366
vt 0.097315 0.897413
vt 0.097329 0.903382
vt 0.116953 0.903335
vt 0.096740 0.897390
vt 0.077116 0.897390
vt 0.077116 0.903359
vt 0.096740 0.903359
vt 0.052048 0.839507
vt 0.012124 0.839507
vt 0.012124 0.838311
vt 0.052048 0.838311
vt 0.050032 0.983709
vt 0.050032 0.964544
vt 0.057444 0.964544
vt 0.057444 0.983709
vt 0.024669 0.864936
vt 0.022664 0.864936
vt 0.022664 0.856031
vt 0.024669 0.856031
vt 0.052048 0.847946
vt 0.012124 0.847946
vt 0.012124 0.846749
vt 0.052048 0.846749
vt 0.096740 0.855278
vt 0.077116 0.855278
vt 0.077116 0.861247
vt 0.096740 0.861247
vt 0.116839 0.855255
vt 0.097215 0.855302
vt 0.097229 0.861271
vt 0.116853 0.861224
vt 0.116753 0.819113
vt 0.097129 0.819160
vt 0.096740 0.819136
vt 0.077116 0.819136
vt 0.052048 0.855188
vt 0.012124 0.855188
vt 0.029095 0.964544
vt 0.029095 0.983709
vt 0.018238 0.983709
vt 0.018238 0.964544
vt 0.053306 0.944804
vt 0.053306 0.963969
vt 0.042450 0.963969
vt 0.042450 0.944804
vt 0.117039 0.939478
vt 0.097415 0.939524
vt 0.096740 0.939501
vt 0.077116 0.939501
vt 0.052048 0.831068
vt 0.012124 0.831068
vt 0.014501 0.855568
vt 0.014501 0.833606
vt 0.022786 0.833606
vt 0.022786 0.855568
vt 0.042124 0.944804
vt 0.042124 0.963969
vt 0.031267 0.963969
vt 0.031267 0.944804
vt 0.044076 0.833606
vt 0.044076 0.855568
vt 0.042072 0.855568
vt 0.042072 0.833606
vt 0.042011 0.833606
vt 0.042011 0.855568
vt 0.040007 0.855568
vt 0.040007 0.833606
vt 0.046140 0.833606
vt 0.046140 0.855568
vt 0.044136 0.855568
vt 0.044136 0.833606
vt 0.049810 0.964544
vt 0.049810 0.983709
vt 0.042398 0.983709
vt 0.042398 0.964544
vt 0.018476 0.864936
vt 0.016471 0.864936
vt 0.016471 0.856031
vt 0.018476 0.856031
vt 0.022604 0.864936
vt 0.020600 0.864936
vt 0.020600 0.856031
vt 0.022604 0.856031
vt 0.026733 0.864936
vt 0.024729 0.864936
vt 0.024729 0.856031
vt 0.026733 0.856031
vt 0.031568 0.855568
vt 0.031568 0.833606
vt 0.039853 0.833606
vt 0.039853 0.855568
vt 0.023035 0.855568
vt 0.023035 0.833606
vt 0.031319 0.833606
vt 0.031319 0.855568
vt 0.018536 0.856031
vt 0.020540 0.856031
vt 0.020540 0.864936
vt 0.018536 0.864936
vt 0.014407 0.856031
vt 0.016411 0.856031
vt 0.016411 0.864936
vt 0.014407 0.864936
vt 0.042176 0.964544
vt 0.042176 0.983709
vt 0.034764 0.983709
vt 0.034764 0.964544
vn -1.0000 0.0000 0.0000
vn 0.0000 0.0000 -1.0000
vn 1.0000 0.0000 0.0000
vn 0.0000 0.0000 1.0000
vn 0.0000 -1.0000 0.0000
vn 0.0000 1.0000 0.0000
usemtl Colors_and_Textures
s off
f 1/1/1 2/2/1 4/3/1 3/4/1
f 9/5/2 10/6/2 8/7/2 7/8/2
f 7/9/3 8/10/3 6/11/3 5/12/3
f 11/13/4 12/14/4 2/15/4 1/16/4
f 9/17/5 7/18/5 5/19/5 11/20/5
f 35/21/3 33/22/3 16/23/3 15/24/3
f 8/25/6 10/26/6 12/27/6 6/28/6
f 3/29/5 9/17/5 11/20/5 1/30/5
f 5/31/4 6/32/4 12/14/4 11/13/4
f 3/33/2 4/34/2 10/6/2 9/5/2
f 16/35/6 14/36/6 13/37/6 15/38/6
f 36/39/1 34/40/1 13/41/1 14/42/1
f 33/43/2 36/44/2 14/45/2 16/46/2
f 34/47/4 35/48/4 15/49/4 13/50/4
f 30/51/4 31/52/4 18/53/4 19/54/4
f 29/55/2 32/56/2 20/57/2 17/58/2
f 32/59/1 30/60/1 19/61/1 20/62/1
f 33/63/6 35/64/6 51/65/6 50/66/6
f 39/67/2 33/68/2 50/69/2 49/70/2
f 26/71/1 28/72/1 24/73/1 22/74/1
f 27/75/2 26/76/2 22/77/2 23/78/2
f 28/79/4 25/80/4 21/81/4 24/82/4
f 2/83/4 12/84/4 25/80/4 28/79/4
f 10/85/2 4/86/2 26/76/2 27/75/2
f 4/87/1 2/88/1 28/72/1 26/71/1
f 12/89/3 10/90/3 27/91/3 25/92/3
f 21/93/3 23/94/3 29/95/3 31/96/3
f 22/74/1 24/73/1 30/60/1 32/59/1
f 23/78/2 22/77/2 32/56/2 29/55/2
f 24/82/4 21/81/4 31/52/4 30/51/4
f 40/97/4 37/98/4 35/48/4 34/47/4
f 39/99/2 38/100/2 36/44/2 33/43/2
f 38/101/1 40/102/1 34/40/1 36/39/1
f 31/103/5 29/104/5 41/105/5 48/106/5
f 18/107/3 17/108/3 39/109/3 37/110/3
f 20/62/1 19/61/1 40/102/1 38/101/1
f 17/58/2 20/57/2 38/100/2 39/99/2
f 19/54/4 18/53/4 37/98/4 40/97/4
f 48/111/3 41/112/3 42/113/3 43/114/3
f 47/115/3 44/116/3 45/117/3 46/118/3
f 52/119/3 49/120/3 50/121/3 51/122/3
f 23/123/6 21/124/6 46/125/6 45/126/6
f 18/127/4 31/128/4 48/129/4 43/130/4
f 21/131/4 25/132/4 47/133/4 46/134/4
f 35/135/4 37/136/4 52/137/4 51/138/4
f 25/139/5 27/140/5 44/141/5 47/142/5
f 37/143/5 39/144/5 49/145/5 52/146/5
f 27/147/2 23/148/2 45/149/2 44/150/2
f 29/151/2 17/152/2 42/153/2 41/154/2
f 17/155/6 18/156/6 43/157/6 42/158/6
