# Blender v2.83.3 OBJ File: 'Vhstapes.blend'
# www.blender.org
mtllib Com_keyboard.mtl
o Com_keyboard_Cube.050
v -0.288028 0.021330 0.910314
v -0.183045 0.213315 0.752984
v -0.288028 0.021330 -1.089686
v -0.183045 0.213315 -0.932355
v 0.435136 0.021330 0.910314
v 0.330153 0.213315 0.752984
v 0.435136 0.021330 -1.089686
v 0.330153 0.213315 -0.932355
v -0.288028 0.213315 0.910314
v -0.288028 0.213315 -1.089686
v 0.435136 0.213315 -1.089686
v 0.435136 0.213315 0.910314
v -0.172297 0.263049 0.708995
v -0.172297 0.263049 -0.888367
v 0.319405 0.263049 -0.888367
v 0.319405 0.263049 0.708995
vt 0.278705 0.764211
vt 0.283779 0.764211
vt 0.283779 0.769288
vt 0.278705 0.769288
vt 0.283931 0.763245
vt 0.289004 0.763245
vt 0.289004 0.769274
vt 0.283931 0.769274
vt 0.278695 0.770421
vt 0.283770 0.770421
vt 0.283770 0.775498
vt 0.278695 0.775498
vt 0.294229 0.769274
vt 0.289156 0.769274
vt 0.289156 0.763245
vt 0.294229 0.763245
vt 0.294229 0.769455
vt 0.294229 0.775484
vt 0.289152 0.775484
vt 0.289152 0.769455
vt 0.038638 0.850520
vt 0.038638 0.846242
vt 0.039957 0.846331
vt 0.039957 0.850431
vt 0.288600 0.770330
vt 0.284321 0.770330
vt 0.283922 0.769455
vt 0.288999 0.769455
vt 0.284321 0.774609
vt 0.283922 0.775484
vt 0.288600 0.774609
vt 0.288999 0.775484
vt 0.040037 0.850523
vt 0.040037 0.846424
vt 0.044093 0.846424
vt 0.044093 0.850523
vt 0.053265 0.849540
vt 0.053265 0.845261
vt 0.054584 0.845351
vt 0.054584 0.849450
vt 0.051908 0.849540
vt 0.051908 0.845261
vt 0.053225 0.845373
vt 0.053225 0.849428
vt 0.051868 0.845261
vt 0.051868 0.849540
vt 0.050551 0.849428
vt 0.050551 0.845373
vn -1.0000 0.0000 0.0000
vn 0.0000 0.0000 -1.0000
vn 1.0000 0.0000 0.0000
vn 0.0000 0.0000 1.0000
vn 0.0000 -1.0000 0.0000
vn 0.0000 0.6625 0.7491
vn 0.0000 1.0000 0.0000
vn 0.0000 0.6625 -0.7491
vn 0.9774 0.2112 0.0000
vn -0.9774 0.2112 0.0000
usemtl Colors_and_Textures
s off
f 1/1/1 9/2/1 10/3/1 3/4/1
f 3/5/2 10/6/2 11/7/2 7/8/2
f 7/9/3 11/10/3 12/11/3 5/12/3
f 5/13/4 12/14/4 9/15/4 1/16/4
f 3/17/5 7/18/5 5/19/5 1/20/5
f 2/21/6 6/22/6 16/23/6 13/24/6
f 2/25/7 4/26/7 10/27/7 9/28/7
f 4/26/7 8/29/7 11/30/7 10/27/7
f 8/29/7 6/31/7 12/32/7 11/30/7
f 6/31/7 2/25/7 9/28/7 12/32/7
f 15/33/7 14/34/7 13/35/7 16/36/7
f 8/37/8 4/38/8 14/39/8 15/40/8
f 6/41/9 8/42/9 15/43/9 16/44/9
f 4/45/10 2/46/10 13/47/10 14/48/10
