# Blender v2.83.3 OBJ File: 'Vhstapes.blend'
# www.blender.org
mtllib Floor_Shelf_B.mtl
o Floor_Shelf_B_Cube.003
v -1.000000 0.000256 1.000000
v -1.000000 0.914608 1.000000
v -1.000000 0.000256 -1.000000
v -1.000000 0.914608 -1.000000
v 1.000000 0.000256 1.000000
v 1.000000 0.914608 1.000000
v 1.000000 0.000256 -1.000000
v 1.000000 0.914608 -1.000000
v -0.185885 0.985176 0.936561
v -0.514025 1.819343 0.936561
v -0.262098 0.955196 0.936561
v -0.590238 1.789363 0.936561
v -0.185885 0.985176 -0.939624
v -0.514025 1.819343 -0.939624
v -0.262098 0.955196 -0.939624
v -0.590238 1.789363 -0.939624
v -0.221930 1.076805 0.936561
v -0.298143 1.046825 0.936561
v -0.298143 1.046825 -0.939624
v -0.221930 1.076805 -0.939624
v 0.330491 1.294114 -0.939624
v 0.366536 1.202484 -0.939624
v 0.366536 1.202484 0.936561
v 0.330492 1.294114 0.936561
v -1.000000 0.911955 0.997119
v -1.000000 1.826308 0.997119
v -1.000000 0.911955 0.915222
v -1.000000 1.826308 0.915222
v 1.000000 0.911955 0.997119
v 1.000000 1.826308 0.997119
v 1.000000 0.911955 0.915222
v 1.000000 1.826308 0.915222
v -1.000000 0.911955 -0.916909
v -1.000000 1.826308 -0.916909
v -1.000000 0.911955 -0.998806
v -1.000000 1.826308 -0.998806
v 1.000000 0.911955 -0.916909
v 1.000000 1.826308 -0.916909
v 1.000000 0.911955 -0.998806
v 1.000000 1.826308 -0.998806
v -0.185885 1.899528 0.936561
v -0.514025 2.733695 0.936561
v -0.262098 1.869548 0.936561
v -0.590238 2.703715 0.936561
v -0.185885 1.899528 -0.939624
v -0.514025 2.733695 -0.939624
v -0.262098 1.869548 -0.939624
v -0.590238 2.703715 -0.939624
v -0.221930 1.991158 0.936561
v -0.298143 1.961177 0.936561
v -0.298143 1.961177 -0.939624
v -0.221930 1.991158 -0.939624
v 0.330491 2.208466 -0.939624
v 0.366536 2.116836 -0.939624
v 0.366536 2.116836 0.936561
v 0.330492 2.208466 0.936561
v -1.000000 2.740660 0.997119
v -1.000000 2.740660 0.915222
v 1.000000 2.740660 0.997119
v 1.000000 2.740660 0.915222
v -1.000000 2.740660 -0.916909
v -1.000000 2.740660 -0.998806
v 1.000000 2.740660 -0.916909
v 1.000000 2.740660 -0.998806
v -0.185885 2.813880 0.936561
v -0.514025 3.648047 0.936561
v -0.262098 2.783900 0.936561
v -0.590238 3.618067 0.936561
v -0.185885 2.813880 -0.939624
v -0.514025 3.648047 -0.939624
v -0.262098 2.783900 -0.939624
v -0.590238 3.618067 -0.939624
v -0.221930 2.905510 0.936561
v -0.298143 2.875530 0.936561
v -0.298143 2.875530 -0.939624
v -0.221930 2.905510 -0.939624
v 0.330491 3.122818 -0.939624
v 0.366536 3.031188 -0.939624
v 0.366536 3.031188 0.936561
v 0.330492 3.122818 0.936561
v -1.000000 3.655012 0.997119
v -1.000000 3.655012 0.915222
v 1.000000 3.655012 0.997119
v 1.000000 3.655012 0.915222
v -1.000000 3.655012 -0.916909
v -1.000000 3.655012 -0.998806
v 1.000000 3.655012 -0.916909
v 1.000000 3.655012 -0.998806
v -0.185885 3.728232 0.936561
v -0.514025 4.562400 0.936561
v -0.262098 3.698252 0.936561
v -0.590238 4.532420 0.936561
v -0.185885 3.728232 -0.939624
v -0.514025 4.562400 -0.939624
v -0.262098 3.698252 -0.939624
v -0.590238 4.532420 -0.939624
v -0.221930 3.819862 0.936561
v -0.298143 3.789882 0.936561
v -0.298143 3.789882 -0.939624
v -0.221930 3.819862 -0.939624
v 0.330491 4.037170 -0.939624
v 0.366536 3.945540 -0.939624
v 0.366536 3.945540 0.936561
v 0.330492 4.037170 0.936561
v -1.000000 4.569365 0.997119
v -1.000000 4.569365 0.915222
v 1.000000 4.569365 0.997119
v 1.000000 4.569365 0.915222
v -1.000000 4.569365 -0.916909
v -1.000000 4.569365 -0.998806
v 1.000000 4.569365 -0.916909
v 1.000000 4.569365 -0.998806
vt 0.016690 0.826045
vt 0.025583 0.826045
vt 0.025583 0.844664
vt 0.016690 0.844664
vt 0.034743 0.844664
vt 0.025850 0.844664
vt 0.025850 0.826045
vt 0.034743 0.826045
vt 0.025850 0.845223
vt 0.034743 0.845223
vt 0.034743 0.863842
vt 0.025850 0.863842
vt 0.025583 0.863842
vt 0.016690 0.863842
vt 0.016690 0.845223
vt 0.025583 0.845223
vt 0.054621 0.845223
vt 0.054621 0.863842
vt 0.035168 0.863842
vt 0.035168 0.845223
vt 0.035168 0.844664
vt 0.035168 0.826045
vt 0.054621 0.826045
vt 0.054621 0.844664
vt 0.291644 0.859881
vt 0.291644 0.855849
vt 0.292058 0.855849
vt 0.292058 0.859881
vt 0.285568 0.855639
vt 0.281607 0.855639
vt 0.281607 0.846156
vt 0.285568 0.846156
vt 0.295684 0.859881
vt 0.295684 0.855849
vt 0.296099 0.855849
vt 0.296099 0.859881
vt 0.301253 0.845227
vt 0.297292 0.845227
vt 0.297292 0.835745
vt 0.301253 0.835745
vt 0.308820 0.816706
vt 0.308820 0.826188
vt 0.308408 0.826188
vt 0.308408 0.816706
vt 0.302413 0.855923
vt 0.302413 0.865405
vt 0.302007 0.865405
vt 0.302007 0.855923
vt 0.270780 0.854784
vt 0.270780 0.864266
vt 0.267833 0.864266
vt 0.267834 0.854784
vt 0.295684 0.860379
vt 0.296099 0.860379
vt 0.286057 0.855639
vt 0.286057 0.846156
vt 0.291644 0.860379
vt 0.292058 0.860379
vt 0.271824 0.864266
vt 0.271335 0.864266
vt 0.271335 0.854784
vt 0.271824 0.854784
vt 0.288638 0.860379
vt 0.288638 0.859881
vt 0.305417 0.826188
vt 0.305417 0.816706
vt 0.299105 0.859881
vt 0.299105 0.860379
vt 0.371086 0.820521
vt 0.371036 0.860814
vt 0.372481 0.860815
vt 0.372530 0.820523
vt 0.271998 0.816841
vt 0.271998 0.821462
vt 0.261871 0.821462
vt 0.261871 0.816841
vt 0.372574 0.820523
vt 0.372524 0.860816
vt 0.373969 0.860817
vt 0.374019 0.820525
vt 0.335252 0.820477
vt 0.335202 0.860769
vt 0.370485 0.860813
vt 0.370535 0.820520
vt 0.301149 0.855927
vt 0.301149 0.865659
vt 0.300734 0.865659
vt 0.300734 0.855927
vt 0.299880 0.865881
vt 0.299880 0.855930
vt 0.300294 0.855930
vt 0.300294 0.865881
vt 0.369957 0.980566
vt 0.369957 0.939990
vt 0.371263 0.939990
vt 0.371263 0.980566
vt 0.369459 0.818262
vt 0.369459 0.858838
vt 0.337567 0.858838
vt 0.337567 0.818262
vt 0.372608 0.818262
vt 0.372608 0.858838
vt 0.371302 0.858838
vt 0.371302 0.818262
vt 0.261871 0.854365
vt 0.261871 0.849743
vt 0.271998 0.849743
vt 0.271998 0.854365
vt 0.301576 0.855927
vt 0.301576 0.865659
vt 0.301161 0.865659
vt 0.301161 0.855927
vt 0.311001 0.816713
vt 0.311001 0.826664
vt 0.310586 0.826664
vt 0.310586 0.816713
vt 0.284597 0.859881
vt 0.284597 0.855849
vt 0.285012 0.855849
vt 0.285012 0.859881
vt 0.290151 0.855639
vt 0.286190 0.855639
vt 0.286190 0.846156
vt 0.290151 0.846156
vt 0.292161 0.859881
vt 0.292161 0.855849
vt 0.292576 0.855849
vt 0.292576 0.859881
vt 0.301802 0.826188
vt 0.297841 0.826188
vt 0.297841 0.816706
vt 0.301802 0.816706
vt 0.308846 0.835745
vt 0.308846 0.845227
vt 0.308434 0.845227
vt 0.308434 0.835745
vt 0.302832 0.855923
vt 0.302832 0.865405
vt 0.302426 0.865405
vt 0.302426 0.855923
vt 0.267745 0.854784
vt 0.267745 0.864266
vt 0.264798 0.864266
vt 0.264798 0.854784
vt 0.292161 0.860379
vt 0.292576 0.860379
vt 0.290640 0.855639
vt 0.290640 0.846156
vt 0.284597 0.860379
vt 0.285012 0.860379
vt 0.271321 0.864266
vt 0.270832 0.864266
vt 0.270832 0.854784
vt 0.271321 0.854784
vt 0.281591 0.860379
vt 0.281591 0.859881
vt 0.305443 0.845227
vt 0.305443 0.835745
vt 0.295582 0.859881
vt 0.295582 0.860379
vt 0.370986 0.901106
vt 0.372431 0.901108
vt 0.271998 0.826083
vt 0.261871 0.826083
vt 0.372474 0.901108
vt 0.373919 0.901110
vt 0.335152 0.901062
vt 0.370435 0.901106
vt 0.310325 0.835752
vt 0.310325 0.845703
vt 0.309910 0.845703
vt 0.309910 0.835752
vt 0.369957 0.899414
vt 0.371263 0.899414
vt 0.369459 0.899414
vt 0.337567 0.899414
vt 0.372608 0.899414
vt 0.371302 0.899414
vt 0.261871 0.845122
vt 0.271998 0.845122
vt 0.300307 0.865881
vt 0.300307 0.855930
vt 0.300721 0.855930
vt 0.300721 0.865881
vt 0.288120 0.859881
vt 0.288120 0.855849
vt 0.288535 0.855849
vt 0.288535 0.859881
vt 0.294734 0.855639
vt 0.290773 0.855639
vt 0.290773 0.846156
vt 0.294734 0.846156
vt 0.300008 0.827541
vt 0.300008 0.831573
vt 0.299593 0.831573
vt 0.299593 0.827541
vt 0.305333 0.845227
vt 0.301372 0.845227
vt 0.301372 0.835745
vt 0.305333 0.835745
vt 0.305315 0.816706
vt 0.305315 0.826188
vt 0.304903 0.826188
vt 0.304903 0.816706
vt 0.301995 0.855923
vt 0.301995 0.865405
vt 0.301588 0.865405
vt 0.301588 0.855923
vt 0.264710 0.854784
vt 0.264710 0.864266
vt 0.261763 0.864266
vt 0.261763 0.854784
vt 0.300008 0.827043
vt 0.299593 0.827043
vt 0.295223 0.855639
vt 0.295223 0.846156
vt 0.288120 0.860379
vt 0.288535 0.860379
vt 0.309897 0.845227
vt 0.309408 0.845227
vt 0.309408 0.835745
vt 0.309897 0.835745
vt 0.285115 0.860379
vt 0.285115 0.859881
vt 0.301912 0.826188
vt 0.301912 0.816706
vt 0.296587 0.827541
vt 0.296587 0.827043
vt 0.370936 0.941399
vt 0.372381 0.941401
vt 0.271998 0.830704
vt 0.261871 0.830704
vt 0.372424 0.941401
vt 0.373869 0.941402
vt 0.335102 0.941355
vt 0.370385 0.941398
vt 0.299163 0.865881
vt 0.299163 0.855930
vt 0.299577 0.855930
vt 0.299577 0.865881
vt 0.369957 0.858838
vt 0.371263 0.858838
vt 0.369459 0.939990
vt 0.337567 0.939990
vt 0.372608 0.939990
vt 0.371302 0.939990
vt 0.261871 0.840501
vt 0.271998 0.840501
vt 0.310752 0.835752
vt 0.310752 0.845703
vt 0.310338 0.845703
vt 0.310338 0.835752
vt 0.303116 0.831076
vt 0.303116 0.827043
vt 0.303531 0.827043
vt 0.303531 0.831076
vt 0.299318 0.855639
vt 0.295357 0.855639
vt 0.295357 0.846156
vt 0.299318 0.846156
vt 0.296484 0.827541
vt 0.296484 0.831573
vt 0.296070 0.831573
vt 0.296070 0.827541
vt 0.303894 0.855639
vt 0.299933 0.855639
vt 0.299933 0.846156
vt 0.303894 0.846156
vt 0.307407 0.846156
vt 0.307407 0.855639
vt 0.306995 0.855639
vt 0.306995 0.846156
vt 0.303251 0.855923
vt 0.303251 0.865405
vt 0.302844 0.865405
vt 0.302844 0.855923
vt 0.310450 0.846156
vt 0.310450 0.855639
vt 0.307503 0.855639
vt 0.307503 0.846156
vt 0.296484 0.827043
vt 0.296070 0.827043
vt 0.299807 0.855639
vt 0.299807 0.846156
vt 0.303116 0.831573
vt 0.303531 0.831573
vt 0.308905 0.835745
vt 0.309393 0.835745
vt 0.309393 0.845227
vt 0.308905 0.845227
vt 0.300110 0.831573
vt 0.300110 0.831076
vt 0.304004 0.855639
vt 0.304004 0.846156
vt 0.293064 0.827541
vt 0.293064 0.827043
vt 0.370886 0.981692
vt 0.372331 0.981693
vt 0.271998 0.835326
vt 0.261871 0.835326
vt 0.372375 0.981693
vt 0.373819 0.981695
vt 0.335052 0.981647
vt 0.370336 0.981691
vt 0.310915 0.846163
vt 0.310915 0.856115
vt 0.310500 0.856115
vt 0.310500 0.846163
vt 0.369957 0.818262
vt 0.371263 0.818262
vt 0.369459 0.980566
vt 0.337567 0.980566
vt 0.372608 0.980566
vt 0.371302 0.980566
vt 0.261871 0.835880
vt 0.271998 0.835880
vt 0.310765 0.845703
vt 0.310765 0.835752
vt 0.311179 0.835752
vt 0.311179 0.845703
vn -1.0000 0.0000 0.0000
vn 0.0000 0.0000 -1.0000
vn 1.0000 0.0000 0.0000
vn 0.0000 0.0000 1.0000
vn 0.0000 -1.0000 0.0000
vn 0.0000 1.0000 0.0000
vn -0.9306 -0.3661 0.0000
vn 0.9306 0.3661 -0.0000
vn 0.3661 -0.9306 0.0000
vn -0.3661 0.9306 0.0000
usemtl Colors_and_Textures
s off
f 1/1/1 2/2/1 4/3/1 3/4/1
f 3/5/2 4/6/2 8/7/2 7/8/2
f 7/9/3 8/10/3 6/11/3 5/12/3
f 5/13/4 6/14/4 2/15/4 1/16/4
f 3/17/5 7/18/5 5/19/5 1/20/5
f 8/21/6 4/22/6 2/23/6 6/24/6
f 17/25/4 10/26/4 12/27/4 18/28/4
f 18/29/7 12/30/7 16/31/7 19/32/7
f 19/33/2 16/34/2 14/35/2 20/36/2
f 20/37/8 14/38/8 10/39/8 17/40/8
f 11/41/9 15/42/9 13/43/9 9/44/9
f 16/45/10 12/46/10 10/47/10 14/48/10
f 20/49/10 17/50/10 24/51/10 21/52/10
f 15/53/2 19/33/2 20/36/2 13/54/2
f 11/55/7 18/29/7 19/32/7 15/56/7
f 9/57/4 17/25/4 18/28/4 11/58/4
f 22/59/8 21/60/8 24/61/8 23/62/8
f 17/25/4 9/57/4 23/63/4 24/64/4
f 9/44/9 13/43/9 22/65/9 23/66/9
f 13/54/2 20/36/2 21/67/2 22/68/2
f 25/69/1 26/70/1 28/71/1 27/72/1
f 27/73/2 28/74/2 32/75/2 31/76/2
f 31/77/3 32/78/3 30/79/3 29/80/3
f 29/81/4 30/82/4 26/83/4 25/84/4
f 27/85/5 31/86/5 29/87/5 25/88/5
f 32/89/6 28/90/6 26/91/6 30/92/6
f 33/93/1 34/94/1 36/95/1 35/96/1
f 35/97/2 36/98/2 40/99/2 39/100/2
f 39/101/3 40/102/3 38/103/3 37/104/3
f 37/105/4 38/106/4 34/107/4 33/108/4
f 35/109/5 39/110/5 37/111/5 33/112/5
f 40/113/6 36/114/6 34/115/6 38/116/6
f 49/117/4 42/118/4 44/119/4 50/120/4
f 50/121/7 44/122/7 48/123/7 51/124/7
f 51/125/2 48/126/2 46/127/2 52/128/2
f 52/129/8 46/130/8 42/131/8 49/132/8
f 43/133/9 47/134/9 45/135/9 41/136/9
f 48/137/10 44/138/10 42/139/10 46/140/10
f 52/141/10 49/142/10 56/143/10 53/144/10
f 47/145/2 51/125/2 52/128/2 45/146/2
f 43/147/7 50/121/7 51/124/7 47/148/7
f 41/149/4 49/117/4 50/120/4 43/150/4
f 54/151/8 53/152/8 56/153/8 55/154/8
f 49/117/4 41/149/4 55/155/4 56/156/4
f 41/136/9 45/135/9 54/157/9 55/158/9
f 45/146/2 52/128/2 53/159/2 54/160/2
f 26/70/1 57/161/1 58/162/1 28/71/1
f 28/74/2 58/163/2 60/164/2 32/75/2
f 32/78/3 60/165/3 59/166/3 30/79/3
f 30/82/4 59/167/4 57/168/4 26/83/4
f 60/169/6 58/170/6 57/171/6 59/172/6
f 34/94/1 61/173/1 62/174/1 36/95/1
f 36/98/2 62/175/2 64/176/2 40/99/2
f 40/102/3 64/177/3 63/178/3 38/103/3
f 38/106/4 63/179/4 61/180/4 34/107/4
f 64/181/6 62/182/6 61/183/6 63/184/6
f 73/185/4 66/186/4 68/187/4 74/188/4
f 74/189/7 68/190/7 72/191/7 75/192/7
f 75/193/2 72/194/2 70/195/2 76/196/2
f 76/197/8 70/198/8 66/199/8 73/200/8
f 67/201/9 71/202/9 69/203/9 65/204/9
f 72/205/10 68/206/10 66/207/10 70/208/10
f 76/209/10 73/210/10 80/211/10 77/212/10
f 71/213/2 75/193/2 76/196/2 69/214/2
f 67/215/7 74/189/7 75/192/7 71/216/7
f 65/217/4 73/185/4 74/188/4 67/218/4
f 78/219/8 77/220/8 80/221/8 79/222/8
f 73/185/4 65/217/4 79/223/4 80/224/4
f 65/204/9 69/203/9 78/225/9 79/226/9
f 69/214/2 76/196/2 77/227/2 78/228/2
f 57/161/1 81/229/1 82/230/1 58/162/1
f 58/163/2 82/231/2 84/232/2 60/164/2
f 60/165/3 84/233/3 83/234/3 59/166/3
f 59/167/4 83/235/4 81/236/4 57/168/4
f 84/237/6 82/238/6 81/239/6 83/240/6
f 61/173/1 85/241/1 86/242/1 62/174/1
f 62/175/2 86/243/2 88/244/2 64/176/2
f 64/177/3 88/245/3 87/246/3 63/178/3
f 63/179/4 87/247/4 85/248/4 61/180/4
f 88/249/6 86/250/6 85/251/6 87/252/6
f 97/253/4 90/254/4 92/255/4 98/256/4
f 98/257/7 92/258/7 96/259/7 99/260/7
f 99/261/2 96/262/2 94/263/2 100/264/2
f 100/265/8 94/266/8 90/267/8 97/268/8
f 91/269/9 95/270/9 93/271/9 89/272/9
f 96/273/10 92/274/10 90/275/10 94/276/10
f 100/277/10 97/278/10 104/279/10 101/280/10
f 95/281/2 99/261/2 100/264/2 93/282/2
f 91/283/7 98/257/7 99/260/7 95/284/7
f 89/285/4 97/253/4 98/256/4 91/286/4
f 102/287/8 101/288/8 104/289/8 103/290/8
f 97/253/4 89/285/4 103/291/4 104/292/4
f 89/272/9 93/271/9 102/293/9 103/294/9
f 93/282/2 100/264/2 101/295/2 102/296/2
f 81/229/1 105/297/1 106/298/1 82/230/1
f 82/231/2 106/299/2 108/300/2 84/232/2
f 84/233/3 108/301/3 107/302/3 83/234/3
f 83/235/4 107/303/4 105/304/4 81/236/4
f 108/305/6 106/306/6 105/307/6 107/308/6
f 85/241/1 109/309/1 110/310/1 86/242/1
f 86/243/2 110/311/2 112/312/2 88/244/2
f 88/245/3 112/313/3 111/314/3 87/246/3
f 87/247/4 111/315/4 109/316/4 85/248/4
f 112/317/6 110/318/6 109/319/6 111/320/6
