# Blender v2.83.3 OBJ File: 'Vhstapes.blend'
# www.blender.org
mtllib Horror sigh.mtl
o HORROR_Sign_Cube.035
v -0.025512 -0.062896 1.000000
v -0.089748 -0.221262 0.284259
v -0.057630 -0.142079 0.904109
v -0.081142 -0.200045 0.642129
v -0.025512 0.062896 1.000000
v -0.089748 0.221262 0.284259
v -0.057630 0.142079 0.904109
v -0.081142 0.200045 0.642129
v -0.025512 -0.062896 -1.000000
v -0.089748 -0.221262 -0.284259
v -0.057630 -0.142079 -0.904109
v -0.081142 -0.200045 -0.642129
v -0.025512 0.062896 -1.000000
v -0.089748 0.221262 -0.284259
v -0.057630 0.142079 -0.904109
v -0.081142 0.200045 -0.642129
v 0.025512 -0.062896 1.000000
v 0.089748 -0.221262 0.284259
v 0.057630 -0.142079 0.904109
v 0.081142 -0.200045 0.642129
v 0.025512 0.062896 1.000000
v 0.089748 0.221262 0.284259
v 0.057630 0.142079 0.904109
v 0.081142 0.200045 0.642129
v 0.025512 -0.062896 -1.000000
v 0.089748 -0.221262 -0.284259
v 0.057630 -0.142079 -0.904109
v 0.081142 -0.200045 -0.642129
v 0.089748 0.221262 -0.284259
v 0.025512 0.062896 -1.000000
v 0.081142 0.200045 -0.642129
v 0.057630 0.142079 -0.904109
vt 0.283973 0.467369
vt 0.283973 0.459854
vt 0.290798 0.459854
vt 0.290798 0.467369
vt 0.302936 0.167745
vt 0.307985 0.210010
vt 0.273859 0.210515
vt 0.268810 0.168250
vt 0.300516 0.428033
vt 0.300516 0.454471
vt 0.293691 0.454471
vt 0.293691 0.428033
vt 0.305841 0.210082
vt 0.304523 0.168212
vt 0.270989 0.168469
vt 0.272307 0.210339
vt 0.268092 0.467369
vt 0.268092 0.459854
vt 0.274918 0.459854
vt 0.274918 0.467369
vt 0.370930 0.194595
vt 0.370555 0.182693
vt 0.348466 0.175369
vt 0.349312 0.202255
vt 0.326440 0.170052
vt 0.327631 0.207907
vt 0.205900 0.183956
vt 0.206275 0.195858
vt 0.228364 0.203182
vt 0.227518 0.176297
vt 0.250390 0.208499
vt 0.249199 0.170645
vt 0.271332 0.428033
vt 0.271332 0.454471
vt 0.267036 0.453204
vt 0.267036 0.429300
vt 0.263891 0.449741
vt 0.263891 0.432764
vt 0.279214 0.472100
vt 0.263796 0.472100
vt 0.304812 0.429300
vt 0.304812 0.453204
vt 0.307958 0.432764
vt 0.307958 0.449741
vt 0.263796 0.455123
vt 0.279214 0.455123
vt 0.325417 0.169442
vt 0.329982 0.207654
vt 0.348318 0.174649
vt 0.351560 0.201789
vt 0.371461 0.181882
vt 0.372896 0.193897
vt 0.205334 0.196378
vt 0.203899 0.184363
vt 0.225235 0.176471
vt 0.228477 0.203611
vt 0.246813 0.170606
vt 0.251378 0.208818
vt 0.278157 0.454471
vt 0.278157 0.428033
vt 0.282453 0.429300
vt 0.282453 0.453204
vt 0.285598 0.432764
vt 0.285598 0.449741
vt 0.295094 0.472100
vt 0.279676 0.472100
vt 0.289395 0.453204
vt 0.289395 0.429300
vt 0.286250 0.449741
vt 0.286250 0.432764
vt 0.279676 0.455123
vt 0.295094 0.455123
vn 0.0000 0.0000 1.0000
vn 1.0000 0.0000 0.0000
vn 0.0000 1.0000 0.0000
vn -1.0000 0.0000 0.0000
vn 0.0000 0.0000 -1.0000
vn -0.9482 0.0000 0.3176
vn -0.9960 0.0000 0.0894
vn -0.9997 0.0000 0.0240
vn -0.9482 0.0000 -0.3176
vn -0.9960 0.0000 -0.0894
vn -0.9997 -0.0000 -0.0240
vn 0.0000 -0.9982 -0.0592
vn 0.0000 -0.9764 -0.2160
vn 0.0000 -0.7711 -0.6367
vn -0.0000 0.9982 -0.0592
vn 0.0000 0.9764 -0.2160
vn 0.0000 0.7711 -0.6367
vn 0.9997 0.0000 -0.0240
vn 0.9960 0.0000 -0.0894
vn 0.9482 0.0000 -0.3176
vn 0.9482 0.0000 0.3176
vn 0.9960 0.0000 0.0894
vn 0.9997 -0.0000 0.0240
vn -0.0000 -0.9982 0.0592
vn 0.0000 -0.9764 0.2160
vn 0.0000 -0.7711 0.6367
vn 0.0000 0.9982 0.0592
vn 0.0000 0.9764 0.2160
vn 0.0000 0.7711 0.6367
vn 0.0000 -1.0000 0.0000
usemtl (null)
s off
f 17/1/1 21/2/1 5/3/1 1/4/1
f 26/5/2 29/6/2 22/7/2 18/8/2
f 29/9/3 14/10/3 6/11/3 22/12/3
f 2/13/4 6/14/4 14/15/4 10/16/4
f 9/17/5 13/18/5 30/19/5 25/20/5
f 1/21/6 5/22/6 7/23/6 3/24/6
f 3/24/7 7/23/7 8/25/7 4/26/7
f 4/26/8 8/25/8 6/14/8 2/13/8
f 13/27/9 9/28/9 11/29/9 15/30/9
f 15/30/10 11/29/10 12/31/10 16/32/10
f 16/32/11 12/31/11 10/16/11 14/15/11
f 26/33/12 10/34/12 12/35/12 28/36/12
f 28/36/13 12/35/13 11/37/13 27/38/13
f 27/39/14 11/40/14 9/17/14 25/20/14
f 14/10/15 29/9/15 31/41/15 16/42/15
f 16/42/16 31/41/16 32/43/16 15/44/16
f 15/45/17 32/46/17 30/19/17 13/18/17
f 29/6/18 26/5/18 28/47/18 31/48/18
f 31/48/19 28/47/19 27/49/19 32/50/19
f 32/50/20 27/49/20 25/51/20 30/52/20
f 21/53/21 17/54/21 19/55/21 23/56/21
f 23/56/22 19/55/22 20/57/22 24/58/22
f 24/58/23 20/57/23 18/8/23 22/7/23
f 2/59/24 18/60/24 20/61/24 4/62/24
f 4/62/25 20/61/25 19/63/25 3/64/25
f 3/65/26 19/66/26 17/1/26 1/4/26
f 22/12/27 6/11/27 8/67/27 24/68/27
f 24/68/28 8/67/28 7/69/28 23/70/28
f 23/71/29 7/72/29 5/3/29 21/2/29
f 10/34/30 26/33/30 18/60/30 2/59/30
