# Blender v2.83.3 OBJ File: 'Vhstapes.blend'
# www.blender.org
mtllib Soda1.mtl
o Soda1_Cylinder.001
v 0.000764 0.009324 0.097341
v 0.000764 0.281677 0.077885
v -0.069022 0.009324 0.068435
v -0.055264 0.281677 0.054677
v -0.097928 0.009324 -0.001351
v -0.078472 0.281677 -0.001351
v -0.069022 0.009324 -0.071137
v -0.055264 0.281677 -0.057379
v 0.000764 0.009324 -0.100043
v 0.000764 0.281677 -0.080587
v 0.070550 0.009324 -0.071137
v 0.056792 0.281677 -0.057379
v 0.099456 0.009324 -0.001351
v 0.080000 0.281677 -0.001351
v 0.070550 0.009324 0.068435
v 0.056792 0.281677 0.054677
v -0.069022 0.281677 0.068435
v 0.000764 0.281677 0.097341
v -0.097928 0.281677 -0.001351
v -0.069022 0.281677 -0.071137
v 0.000764 0.281677 -0.100043
v 0.070550 0.281677 -0.071137
v 0.099456 0.281677 -0.001351
v 0.070550 0.281677 0.068435
v -0.055264 0.272067 0.054677
v 0.000764 0.272067 0.077885
v -0.078472 0.272067 -0.001351
v -0.055264 0.272067 -0.057379
v 0.000764 0.272067 -0.080587
v 0.056792 0.272067 -0.057379
v 0.080000 0.272067 -0.001351
v 0.056792 0.272067 0.054677
vt 0.493006 0.886250
vt 0.493006 0.956618
vt 0.485696 0.956618
vt 0.485696 0.886250
vt 0.485774 0.884139
vt 0.485774 0.813771
vt 0.490943 0.813771
vt 0.490943 0.884139
vt 0.498253 0.813771
vt 0.498253 0.884139
vt 0.461898 0.886250
vt 0.461898 0.956618
vt 0.456729 0.956618
vt 0.456729 0.886250
vt 0.449419 0.956618
vt 0.449419 0.886250
vt 0.936684 0.814028
vt 0.936684 0.988105
vt 0.884429 0.988105
vt 0.884429 0.814028
vt 0.020245 0.959496
vt 0.020245 0.954379
vt 0.021105 0.954379
vt 0.021105 0.959496
vt 0.461976 0.813771
vt 0.461976 0.884139
vt 0.454666 0.884139
vt 0.454666 0.813771
vt 0.449497 0.884139
vt 0.449497 0.813771
vt 0.003010 0.976162
vt 0.003010 0.953586
vt 0.019539 0.937622
vt 0.042914 0.937622
vt 0.059443 0.953586
vt 0.059443 0.976162
vt 0.042914 0.992126
vt 0.019539 0.992126
vt 0.047677 0.954742
vt 0.047677 0.947505
vt 0.049898 0.946616
vt 0.049898 0.955630
vt 0.042379 0.942388
vt 0.043299 0.940242
vt 0.034886 0.942388
vt 0.033966 0.940242
vt 0.029588 0.947505
vt 0.027367 0.946616
vt 0.029588 0.954742
vt 0.027367 0.955630
vt 0.034886 0.959859
vt 0.033966 0.962004
vt 0.042379 0.959859
vt 0.043299 0.962004
vt 0.027300 0.967710
vt 0.032598 0.962592
vt 0.040091 0.962592
vt 0.045390 0.967710
vt 0.045390 0.974946
vt 0.040091 0.980064
vt 0.032598 0.980064
vt 0.027300 0.974946
vt 0.020245 0.947142
vt 0.020245 0.942025
vt 0.021105 0.942025
vt 0.021105 0.947142
vt 0.022017 0.947065
vt 0.022017 0.941948
vt 0.022878 0.941948
vt 0.022878 0.947065
vt 0.021131 0.947065
vt 0.021131 0.941948
vt 0.021991 0.941948
vt 0.021991 0.947065
vt 0.022017 0.954302
vt 0.022878 0.954302
vt 0.021131 0.954302
vt 0.021991 0.954302
vt 0.022904 0.949108
vt 0.022904 0.941871
vt 0.023764 0.941871
vt 0.023764 0.949108
vn -0.3827 0.0000 0.9239
vn -0.9239 0.0000 0.3827
vn -0.9239 0.0000 -0.3827
vn -0.3827 0.0000 -0.9239
vn 0.3827 0.0000 -0.9239
vn 0.9239 0.0000 -0.3827
vn 0.9239 0.0000 0.3827
vn 0.3827 0.0000 0.9239
vn 0.0000 -1.0000 -0.0000
vn 0.0000 1.0000 0.0000
usemtl Colors_and_Textures
s off
f 1/1/1 18/2/1 17/3/1 3/4/1
f 3/5/2 17/6/2 19/7/2 5/8/2
f 5/8/3 19/7/3 20/9/3 7/10/3
f 7/11/4 20/12/4 21/13/4 9/14/4
f 9/14/5 21/13/5 22/15/5 11/16/5
f 11/17/6 22/18/6 23/19/6 13/20/6
f 2/21/4 16/22/4 32/23/4 26/24/4
f 13/25/7 23/26/7 24/27/7 15/28/7
f 15/28/8 24/27/8 18/29/8 1/30/8
f 1/31/9 3/32/9 5/33/9 7/34/9 9/35/9 11/36/9 13/37/9 15/38/9
f 2/39/10 4/40/10 17/41/10 18/42/10
f 4/40/10 6/43/10 19/44/10 17/41/10
f 6/43/10 8/45/10 20/46/10 19/44/10
f 8/45/10 10/47/10 21/48/10 20/46/10
f 10/47/10 12/49/10 22/50/10 21/48/10
f 12/49/10 14/51/10 23/52/10 22/50/10
f 14/51/10 16/53/10 24/54/10 23/52/10
f 16/53/10 2/39/10 18/42/10 24/54/10
f 25/55/10 26/56/10 32/57/10 31/58/10 30/59/10 29/60/10 28/61/10 27/62/10
f 14/63/2 12/64/2 30/65/2 31/66/2
f 10/67/8 8/68/8 28/69/8 29/70/8
f 6/71/6 4/72/6 25/73/6 27/74/6
f 16/22/3 14/63/3 31/66/3 32/23/3
f 12/75/1 10/67/1 29/70/1 30/76/1
f 8/77/7 6/71/7 27/74/7 28/78/7
f 4/79/5 2/80/5 26/81/5 25/82/5
