# Blender v2.83.3 OBJ File: 'Vhstapes.blend'
# www.blender.org
mtllib VHS_tape.mtl
o VHS_Tape_Cube.002
v -0.091141 0.042494 -0.267379
v -0.182282 0.042494 -0.317631
v -0.182282 -0.042494 -0.317631
v 0.091141 0.042494 -0.267379
v 0.182282 0.042494 -0.317631
v 0.182282 -0.042494 -0.317631
v 0.000000 0.042494 -0.306248
v 0.091141 -0.042494 -0.317631
v 0.182282 -0.042494 -0.158816
v 0.091141 0.042494 -0.317631
v -0.182282 0.042494 -0.158816
v -0.091141 0.042494 -0.317631
v 0.182282 0.042494 -0.158816
v -0.091141 -0.042494 -0.317631
v -0.182282 -0.042494 -0.158816
v -0.045570 0.042494 -0.297555
v 0.045570 0.042494 -0.297555
v 0.068356 0.042494 -0.285856
v -0.022785 0.042494 -0.304123
v 0.022785 0.042494 -0.304123
v -0.068356 0.042494 -0.285856
v 0.000000 0.042494 -0.159645
v 0.091141 0.042494 -0.159645
v -0.091141 0.042494 -0.159645
v -0.045570 0.042494 -0.159645
v 0.045570 0.042494 -0.159645
v 0.068356 0.042494 -0.159645
v -0.022785 0.042494 -0.159645
v 0.022785 0.042494 -0.159645
v -0.068356 0.042494 -0.159645
v 0.063105 -0.042494 -0.159771
v 0.061892 -0.042494 -0.172057
v 0.061892 -0.042494 -0.147485
v 0.058301 -0.042494 -0.183871
v 0.058301 -0.042494 -0.135671
v 0.052470 -0.042494 -0.124783
v 0.052470 -0.042494 -0.194759
v 0.044622 -0.042494 -0.115239
v 0.035059 -0.042494 -0.107407
v 0.044622 -0.042494 -0.204302
v 0.024150 -0.042494 -0.101588
v 0.035059 -0.042494 -0.212134
v 0.024150 -0.042494 -0.217954
v 0.012312 -0.042494 -0.098004
v 0.012312 -0.042494 -0.221538
v -0.052469 -0.042494 -0.124783
v -0.044621 -0.042494 -0.115239
v -0.058300 -0.042494 -0.135671
v 0.000001 -0.042494 -0.222748
v -0.024148 -0.042494 -0.101588
v -0.012310 -0.042494 -0.098004
v -0.063104 -0.042494 -0.159771
v -0.061891 -0.042494 -0.172057
v -0.044621 -0.042494 -0.204302
v -0.061891 -0.042494 -0.147485
v -0.012310 -0.042494 -0.221538
v -0.024148 -0.042494 -0.217954
v -0.058300 -0.042494 -0.183871
v -0.052469 -0.042494 -0.194759
v -0.035058 -0.042494 -0.212134
v 0.000001 -0.042494 -0.096794
v -0.035058 -0.042494 -0.107407
v -0.091141 0.042494 0.267379
v -0.182282 0.042494 0.317631
v -0.182282 -0.042494 0.317631
v 0.091141 0.042494 0.267379
v 0.182282 0.042494 0.317631
v 0.182282 -0.042494 0.317631
v -0.182282 0.042494 0.000000
v -0.182282 -0.042494 0.000000
v 0.182282 0.042494 0.000000
v 0.182282 -0.042494 0.000000
v 0.000000 0.042494 0.306248
v 0.000000 -0.042494 0.000000
v 0.091141 -0.042494 0.317631
v 0.182282 -0.042494 0.158816
v 0.091141 -0.042494 0.000000
v 0.091141 0.042494 0.317631
v -0.182282 0.042494 0.158816
v 0.091141 0.042494 0.000000
v -0.091141 0.042494 0.317631
v 0.182282 0.042494 0.158816
v -0.091141 0.042494 0.000000
v -0.091141 -0.042494 0.317631
v -0.182282 -0.042494 0.158816
v -0.091141 -0.042494 0.000000
v -0.045570 0.042494 0.297555
v -0.045570 -0.042494 0.000000
v 0.045570 0.042494 0.297555
v 0.045570 -0.042494 0.000000
v 0.068356 -0.042494 0.000000
v 0.068356 0.042494 0.285856
v -0.022785 -0.042494 0.000000
v -0.022785 0.042494 0.304123
v 0.022785 0.042494 0.304123
v 0.022785 -0.042494 0.000000
v -0.068356 -0.042494 0.000000
v -0.068356 0.042494 0.285856
v 0.000000 0.042494 0.159645
v 0.091141 0.042494 0.159645
v -0.091141 0.042494 0.159645
v -0.045570 0.042494 0.159645
v 0.045570 0.042494 0.159645
v 0.068356 0.042494 0.159645
v -0.022785 0.042494 0.159645
v 0.022785 0.042494 0.159645
v -0.068356 0.042494 0.159645
v 0.063105 -0.042494 0.159771
v 0.061892 -0.042494 0.172057
v 0.061892 -0.042494 0.147485
v 0.058301 -0.042494 0.183871
v 0.058301 -0.042494 0.135671
v 0.052470 -0.042494 0.124783
v 0.052470 -0.042494 0.194759
v 0.044622 -0.042494 0.115239
v 0.035059 -0.042494 0.107407
v 0.044622 -0.042494 0.204302
v 0.024150 -0.042494 0.101588
v 0.035059 -0.042494 0.212134
v 0.024150 -0.042494 0.217954
v 0.012312 -0.042494 0.098004
v 0.012312 -0.042494 0.221538
v -0.052469 -0.042494 0.124783
v -0.044621 -0.042494 0.115239
v -0.058300 -0.042494 0.135671
v 0.000001 -0.042494 0.222748
v -0.024148 -0.042494 0.101588
v -0.012310 -0.042494 0.098004
v -0.063104 -0.042494 0.159771
v -0.061891 -0.042494 0.172057
v -0.044621 -0.042494 0.204302
v -0.061891 -0.042494 0.147485
v -0.012310 -0.042494 0.221538
v -0.024148 -0.042494 0.217954
v -0.058300 -0.042494 0.183871
v -0.052469 -0.042494 0.194759
v -0.035058 -0.042494 0.212134
v 0.000001 -0.042494 0.096794
v -0.035058 -0.042494 0.107407
v 0.000001 -0.042494 0.159771
v 0.000001 -0.042494 -0.159771
vt 0.328479 0.419094
vt 0.328479 0.338188
vt 0.004854 0.338188
vt 0.004854 0.419094
vt 0.328479 0.085761
vt 0.328479 0.004854
vt 0.004854 0.004854
vt 0.004854 0.085761
vt 0.004854 0.995146
vt 0.085761 0.995146
vt 0.085338 0.914239
vt 0.030455 0.914239
vt 0.004854 0.914239
vt 0.085338 0.752427
vt 0.166667 0.752427
vt 0.166667 0.671521
vt 0.085760 0.671521
vt 0.580906 0.338188
vt 0.500000 0.338188
vt 0.500000 0.661812
vt 0.580906 0.661812
vt 0.661812 0.338188
vt 0.661812 0.661812
vt 0.085338 0.772654
vt 0.030455 0.752427
vt 0.021042 0.772654
vt 0.328479 0.328479
vt 0.328479 0.247573
vt 0.004854 0.247573
vt 0.004854 0.328479
vt 0.166667 0.995146
vt 0.166667 0.914239
vt 0.995146 0.247573
vt 0.995146 0.085760
vt 0.995146 0.004854
vt 0.914239 0.004854
vt 0.914726 0.110648
vt 0.920985 0.111725
vt 0.927004 0.114912
vt 0.932550 0.120089
vt 0.937412 0.127056
vt 0.941402 0.135544
vt 0.944367 0.145229
vt 0.946192 0.155738
vt 0.946809 0.166666
vt 0.946192 0.177594
vt 0.944367 0.188103
vt 0.941402 0.197788
vt 0.937412 0.206277
vt 0.932550 0.213243
vt 0.927004 0.218420
vt 0.920985 0.221607
vt 0.914726 0.222684
vt 0.914239 0.328479
vt 0.995146 0.328479
vt 0.328479 0.500000
vt 0.004854 0.500000
vt 0.085338 0.853560
vt 0.085338 0.873786
vt 0.085338 0.894013
vt 0.085338 0.792880
vt 0.085338 0.813107
vt 0.085338 0.833333
vt 0.021042 0.894013
vt 0.015082 0.873786
vt 0.011736 0.853560
vt 0.010654 0.833333
vt 0.011736 0.813107
vt 0.015082 0.792880
vt 0.004854 0.752427
vt 0.004854 0.671521
vt 0.833333 0.004854
vt 0.833333 0.085761
vt 0.833333 0.105987
vt 0.833333 0.126214
vt 0.833333 0.146440
vt 0.833333 0.166667
vt 0.833333 0.186893
vt 0.833333 0.207120
vt 0.833333 0.227346
vt 0.833333 0.247573
vt 0.833333 0.328479
vt 0.908467 0.221607
vt 0.902449 0.218420
vt 0.896902 0.213243
vt 0.892040 0.206277
vt 0.888050 0.197788
vt 0.885086 0.188103
vt 0.883260 0.177595
vt 0.882643 0.166666
vt 0.883260 0.155738
vt 0.885086 0.145229
vt 0.888050 0.135544
vt 0.892040 0.127056
vt 0.896902 0.120089
vt 0.902449 0.114912
vt 0.908467 0.111725
vt 0.914726 0.166666
vt 0.328479 0.580906
vt 0.004854 0.580906
vt 0.004854 0.661812
vt 0.328479 0.661812
vt 0.419094 0.328479
vt 0.419094 0.004854
vt 0.338188 0.004854
vt 0.338188 0.328479
vt 0.328479 0.995146
vt 0.328479 0.914239
vt 0.302878 0.914239
vt 0.247995 0.914239
vt 0.247573 0.995146
vt 0.247995 0.752427
vt 0.247573 0.671521
vt 0.419094 0.338188
vt 0.419094 0.661812
vt 0.338188 0.338188
vt 0.338188 0.661812
vt 0.312291 0.772654
vt 0.302878 0.752427
vt 0.247995 0.772654
vt 0.661812 0.328479
vt 0.661812 0.004854
vt 0.580906 0.004854
vt 0.580906 0.328479
vt 0.671521 0.247573
vt 0.671521 0.328479
vt 0.752427 0.328479
vt 0.751941 0.222684
vt 0.745682 0.221607
vt 0.739663 0.218420
vt 0.734116 0.213243
vt 0.729255 0.206277
vt 0.725265 0.197788
vt 0.722300 0.188103
vt 0.720474 0.177595
vt 0.719858 0.166666
vt 0.720474 0.155738
vt 0.722300 0.145229
vt 0.725265 0.135544
vt 0.729255 0.127056
vt 0.734116 0.120089
vt 0.739663 0.114912
vt 0.745682 0.111725
vt 0.751941 0.110648
vt 0.752427 0.004854
vt 0.671521 0.004854
vt 0.671521 0.085761
vt 0.247995 0.853560
vt 0.247995 0.833333
vt 0.247995 0.813107
vt 0.247995 0.792880
vt 0.247995 0.894013
vt 0.247995 0.873786
vt 0.328479 0.752427
vt 0.318251 0.792880
vt 0.321597 0.813107
vt 0.322680 0.833333
vt 0.321597 0.853560
vt 0.318251 0.873786
vt 0.312291 0.894013
vt 0.328479 0.671521
vt 0.758200 0.111725
vt 0.764218 0.114912
vt 0.769765 0.120089
vt 0.774626 0.127056
vt 0.778616 0.135544
vt 0.781581 0.145229
vt 0.783407 0.155738
vt 0.784023 0.166666
vt 0.783407 0.177595
vt 0.781581 0.188103
vt 0.778616 0.197788
vt 0.774626 0.206277
vt 0.769765 0.213243
vt 0.764218 0.218420
vt 0.758200 0.221608
vt 0.751941 0.166666
vn -1.0000 0.0000 0.0000
vn 0.0000 0.0000 -1.0000
vn 0.0000 1.0000 0.0000
vn 1.0000 0.0000 0.0000
vn 0.0000 -1.0000 0.0000
vn 0.0000 0.0000 1.0000
usemtl Material.001
s off
f 11/1/1 2/2/1 3/3/1 15/4/1
f 10/5/2 5/6/2 6/7/2 8/8/2
f 2/9/3 11/10/3 24/11/3 1/12/3 12/13/3
f 23/14/3 80/15/3 71/16/3 13/17/3
f 13/18/4 71/19/4 72/20/4 9/21/4
f 5/22/4 13/18/4 9/21/4 6/23/4
f 27/24/3 23/14/3 4/25/3 18/26/3
f 2/27/2 12/28/2 14/29/2 3/30/2
f 11/10/3 69/31/3 83/32/3 24/11/3
f 14/33/5 8/34/5 6/35/5 9/36/5 31/37/5 32/38/5 34/39/5 37/40/5 40/41/5 42/42/5 43/43/5 45/44/5 49/45/5 56/46/5 57/47/5 60/48/5 54/49/5 59/50/5 58/51/5 53/52/5 52/53/5 15/54/5 3/55/5
f 14/29/2 12/28/2 10/5/2 8/8/2
f 69/56/1 11/1/1 15/4/1 70/57/1
f 28/58/3 25/59/3 30/60/3 24/11/3 83/32/3 80/15/3 23/14/3 27/24/3 26/61/3 29/62/3 22/63/3
f 12/13/3 1/12/3 21/64/3 16/65/3 19/66/3 7/67/3 20/68/3 17/69/3 18/26/3 4/25/3 10/70/3
f 10/70/3 4/25/3 23/14/3 13/17/3 5/71/3
f 9/36/5 72/72/5 77/73/5 91/74/5 90/75/5 96/76/5 74/77/5 93/78/5 88/79/5 97/80/5 86/81/5 70/82/5 15/54/5 52/53/5 55/83/5 48/84/5 46/85/5 47/86/5 62/87/5 50/88/5 51/89/5 61/90/5 44/91/5 41/92/5 39/93/5 38/94/5 36/95/5 35/96/5 33/97/5 31/37/5
f 141/98/5 55/83/5 52/53/5
f 79/99/1 85/100/1 65/101/1 64/102/1
f 78/103/6 75/104/6 68/105/6 67/106/6
f 64/107/3 81/108/3 63/109/3 101/110/3 79/111/3
f 100/112/3 82/113/3 71/16/3 80/15/3
f 82/114/4 76/115/4 72/20/4 71/19/4
f 67/116/4 68/117/4 76/115/4 82/114/4
f 92/118/3 66/119/3 100/112/3 104/120/3
f 64/121/6 65/122/6 84/123/6 81/124/6
f 79/111/3 101/110/3 83/32/3 69/31/3
f 84/125/5 65/126/5 85/127/5 129/128/5 130/129/5 135/130/5 136/131/5 131/132/5 137/133/5 134/134/5 133/135/5 126/136/5 122/137/5 120/138/5 119/139/5 117/140/5 114/141/5 111/142/5 109/143/5 108/144/5 76/145/5 68/146/5 75/147/5
f 84/123/6 75/104/6 78/103/6 81/124/6
f 69/56/1 70/57/1 85/100/1 79/99/1
f 105/148/3 99/149/3 106/150/3 103/151/3 104/120/3 100/112/3 80/15/3 83/32/3 101/110/3 107/152/3 102/153/3
f 81/108/3 78/154/3 66/119/3 92/118/3 89/155/3 95/156/3 73/157/3 94/158/3 87/159/3 98/160/3 63/109/3
f 78/154/3 67/161/3 82/113/3 100/112/3 66/119/3
f 76/145/5 108/144/5 110/162/5 112/163/5 113/164/5 115/165/5 116/166/5 118/167/5 121/168/5 138/169/5 128/170/5 127/171/5 139/172/5 124/173/5 123/174/5 125/175/5 132/176/5 129/128/5 85/127/5 70/82/5 86/81/5 97/80/5 88/79/5 93/78/5 74/77/5 96/76/5 90/75/5 91/74/5 77/73/5 72/72/5
f 140/177/5 130/129/5 129/128/5
f 63/109/3 98/160/3 107/152/3 101/110/3
f 98/160/3 87/159/3 102/153/3 107/152/3
f 94/158/3 73/157/3 99/149/3 105/148/3
f 87/159/3 94/158/3 105/148/3 102/153/3
f 73/157/3 95/156/3 106/150/3 99/149/3
f 95/156/3 89/155/3 103/151/3 106/150/3
f 89/155/3 92/118/3 104/120/3 103/151/3
f 28/58/3 22/63/3 7/67/3 19/66/3
f 22/63/3 29/62/3 20/68/3 7/67/3
f 29/62/3 26/61/3 17/69/3 20/68/3
f 26/61/3 27/24/3 18/26/3 17/69/3
f 21/64/3 30/60/3 25/59/3 16/65/3
f 25/59/3 28/58/3 19/66/3 16/65/3
f 1/12/3 24/11/3 30/60/3 21/64/3
f 140/177/5 122/137/5 126/136/5
f 140/177/5 117/140/5 119/139/5
f 140/177/5 110/162/5 108/144/5
f 140/177/5 128/170/5 138/169/5
f 140/177/5 114/141/5 117/140/5
f 140/177/5 111/142/5 114/141/5
f 140/177/5 109/143/5 111/142/5
f 108/144/5 109/143/5 140/177/5
f 119/139/5 120/138/5 140/177/5
f 120/138/5 122/137/5 140/177/5
f 140/177/5 123/174/5 124/173/5
f 124/173/5 139/172/5 140/177/5
f 139/172/5 127/171/5 140/177/5
f 127/171/5 128/170/5 140/177/5
f 140/177/5 125/175/5 123/174/5
f 129/128/5 132/176/5 140/177/5
f 132/176/5 125/175/5 140/177/5
f 140/177/5 137/133/5 131/132/5
f 140/177/5 116/166/5 115/165/5
f 140/177/5 134/134/5 137/133/5
f 140/177/5 118/167/5 116/166/5
f 140/177/5 133/135/5 134/134/5
f 140/177/5 121/168/5 118/167/5
f 126/136/5 133/135/5 140/177/5
f 138/169/5 121/168/5 140/177/5
f 115/165/5 113/164/5 140/177/5
f 131/132/5 136/131/5 140/177/5
f 136/131/5 135/130/5 140/177/5
f 113/164/5 112/163/5 140/177/5
f 135/130/5 130/129/5 140/177/5
f 112/163/5 110/162/5 140/177/5
f 45/44/5 141/98/5 49/45/5
f 141/98/5 48/84/5 55/83/5
f 141/98/5 44/91/5 61/90/5
f 141/98/5 56/46/5 49/45/5
f 31/37/5 141/98/5 32/38/5
f 32/38/5 141/98/5 34/39/5
f 141/98/5 46/85/5 48/84/5
f 34/39/5 141/98/5 37/40/5
f 141/98/5 47/86/5 46/85/5
f 37/40/5 141/98/5 40/41/5
f 141/98/5 62/87/5 47/86/5
f 40/41/5 141/98/5 42/42/5
f 141/98/5 50/88/5 62/87/5
f 42/42/5 141/98/5 43/43/5
f 43/43/5 141/98/5 45/44/5
f 61/90/5 51/89/5 141/98/5
f 51/89/5 50/88/5 141/98/5
f 141/98/5 57/47/5 56/46/5
f 141/98/5 41/92/5 44/91/5
f 141/98/5 60/48/5 57/47/5
f 141/98/5 39/93/5 41/92/5
f 141/98/5 54/49/5 60/48/5
f 141/98/5 38/94/5 39/93/5
f 141/98/5 59/50/5 54/49/5
f 141/98/5 36/95/5 38/94/5
f 141/98/5 58/51/5 59/50/5
f 141/98/5 35/96/5 36/95/5
f 141/98/5 53/52/5 58/51/5
f 141/98/5 33/97/5 35/96/5
f 52/53/5 53/52/5 141/98/5
f 31/37/5 33/97/5 141/98/5
