# Blender v2.81 (sub 16) OBJ File: 'FrontDesk_working.blend'
# www.blender.org
mtllib VHSPlayer.mtl
o VHS_Player_Cube.002
v -23.110298 -6.572282 36.858707
v -23.110298 6.673817 36.858707
v -23.110298 -6.572282 -36.428226
v -23.110298 6.673817 -36.428226
v 22.644236 -6.572282 36.858707
v 22.644236 -6.572282 -36.428226
v 22.644236 5.551275 36.858707
v 20.717487 6.673817 36.858707
v 20.717487 6.673817 -36.428226
v 22.644236 5.551275 -36.428226
v -23.110298 5.551275 -36.428226
v -23.110298 5.551275 36.858707
v -23.110298 -6.572282 -18.663994
v -23.110298 -6.572282 19.094475
v -23.110298 6.673817 19.094475
v -23.110298 6.673817 -18.663994
v 22.644232 -6.572282 19.094475
v 22.644232 -6.572282 -18.663994
v 20.717487 6.673817 -18.663994
v 20.717487 6.673817 19.094475
v 22.644232 5.551275 19.094475
v 22.644232 5.551275 -18.663994
v -23.110298 5.551275 -18.663994
v -23.110298 5.551275 19.094475
v -23.110298 4.558732 -36.428226
v -23.110298 -5.579712 -36.428226
v 22.644232 -5.579712 -36.428226
v 22.644232 4.558732 -36.428226
v 22.644232 4.558732 36.858707
v 22.644232 -5.579712 36.858707
v -23.110298 -5.579712 36.858707
v -23.110298 4.558732 36.858707
v 22.644232 4.558732 -18.663994
v 22.644232 -5.579712 -18.663994
v 22.644232 4.558732 19.094475
v 22.644232 -5.579712 19.094475
v -23.110298 4.558732 19.094475
v -23.110298 -5.579712 19.094475
v -23.110298 4.558732 -18.663994
v -23.110298 -5.579712 -18.663994
v 23.210258 4.105090 -18.156727
v 23.210258 -5.126070 -18.156727
v 23.210258 4.105090 18.587210
v 23.210258 -5.126070 18.587210
v -23.110298 -1.111665 -36.428226
v -23.110298 -4.491147 -36.428226
v 22.644232 -4.491147 -36.428226
v 22.644232 -1.111665 -36.428226
v 22.644232 -1.111665 36.858707
v 22.644232 -4.491147 36.858707
v -23.110298 -4.491147 36.858707
v -23.110298 -1.111665 36.858707
v 22.644232 -1.111665 -18.663994
v 22.644232 -4.491147 -18.663994
v 22.644232 -1.111665 19.094475
v 22.644232 -4.491147 19.094475
v -23.110298 -1.111665 19.094475
v -23.110298 -4.491147 19.094475
v -23.110298 -1.111665 -18.663994
v -23.110298 -4.491147 -18.663994
v 23.210258 -1.262876 -18.156727
v 23.210258 -4.339935 -18.156727
v 23.210258 -1.262876 18.587210
v 23.210258 -4.339935 18.587210
v 22.644232 0.787673 -36.428226
v 22.644232 3.231957 -36.428226
v -23.110298 0.787673 36.858707
v -23.110298 3.231957 36.858707
v -23.110298 3.231957 -36.428226
v -23.110298 0.787673 -36.428226
v 22.644232 3.231957 36.858707
v 22.644232 0.787673 36.858707
v 22.644232 3.231957 -18.663994
v 22.644232 0.787673 -18.663994
v 22.644232 3.231957 19.094475
v 22.644232 0.787673 19.094475
v -23.110298 3.231957 19.094475
v -23.110298 0.787673 19.094475
v -23.110298 3.231957 -18.663994
v -23.110298 0.787673 -18.663994
v 23.210258 2.775668 -18.156727
v 23.210258 0.461758 -18.156727
v 23.210258 2.775668 18.587210
v 23.210258 0.461758 18.587210
v -23.110298 -6.572282 -12.287689
v -23.110298 -6.572282 12.718170
v -23.110298 6.673817 12.718170
v -23.110298 6.673817 -12.287689
v 22.644232 -6.572282 12.718170
v 22.644232 -6.572282 -12.287689
v 20.717487 6.673817 -12.287689
v 20.717487 6.673817 12.718170
v 22.644232 5.551275 12.718170
v 22.644232 5.551275 -12.287689
v -23.110298 5.551275 -12.287689
v -23.110298 5.551275 12.718170
v -23.110298 -5.579712 12.718170
v -23.110298 -5.579712 -12.287689
v -23.110298 4.558732 12.718170
v -23.110298 4.558732 -12.287689
v 22.644232 -5.579712 -12.287689
v 22.644232 -5.579712 12.718170
v 22.644232 4.558732 -12.287689
v 22.644232 4.558732 12.718170
v 23.210258 -5.126070 -11.951754
v 23.210258 -5.126070 12.382236
v 23.210258 4.105090 -11.951754
v 23.210258 4.105090 12.382236
v 23.210258 -4.339927 -11.951754
v 23.210258 -4.339927 12.382236
v 23.210258 -1.262876 -11.951754
v 23.210258 -1.262876 12.382236
v -23.110298 -4.491147 12.718170
v -23.110298 -4.491147 -12.287689
v -23.110298 -1.111665 12.718170
v -23.110298 -1.111665 -12.287689
v 23.210258 0.461758 -11.951754
v 23.210258 0.461758 12.382236
v 23.210258 2.775668 -11.951754
v 23.210258 2.775668 12.382236
v -23.110298 0.787673 12.718170
v -23.110298 0.787673 -12.287689
v -23.110298 3.231948 12.718170
v -23.110298 3.231948 -12.287689
v 23.631899 -4.339927 -11.951754
v 23.631899 -4.339927 12.382236
v 23.631899 -1.262876 -11.951754
v 23.631899 -1.262876 12.382236
v 23.631899 0.461758 -11.951754
v 23.631899 0.461758 12.382236
v 23.631899 2.775668 -11.951754
v 23.631899 2.775668 12.382236
v 24.176064 0.006063 -27.687820
v 22.476198 0.006063 -31.244164
v 24.176064 0.006063 -31.244164
v 22.476198 -1.210274 -31.029682
v 24.176064 -1.210274 -31.029682
v 22.476198 -2.279908 -30.412136
v 24.176064 -2.279908 -30.412136
v 22.476198 -3.073818 -29.465992
v 24.176064 -3.073818 -29.465992
v 22.476198 -3.496244 -28.305376
v 24.176064 -3.496244 -28.305376
v 22.476198 -3.496244 -27.070272
v 24.176064 -3.496244 -27.070272
v 22.476198 -3.073818 -25.909658
v 24.176064 -3.073818 -25.909658
v 22.476198 -2.279908 -24.963514
v 24.176064 -2.279908 -24.963514
v 22.476198 -1.210274 -24.345966
v 24.176064 -1.210274 -24.345966
v 22.476198 0.006063 -24.131495
v 24.176064 0.006063 -24.131495
v 22.476198 1.222400 -24.345959
v 24.176064 1.222400 -24.345959
v 22.476198 2.292025 -24.963514
v 24.176064 2.292025 -24.963514
v 22.476198 3.085936 -25.909658
v 24.176064 3.085936 -25.909658
v 22.476198 3.508362 -27.070272
v 24.176064 3.508362 -27.070272
v 22.476198 3.508371 -28.305376
v 24.176064 3.508371 -28.305376
v 22.476198 3.085936 -29.465992
v 24.176064 3.085936 -29.465992
v 22.476198 2.292034 -30.412136
v 24.176064 2.292034 -30.412136
v 22.476198 1.222400 -31.029682
v 24.176064 1.222400 -31.029682
vt 0.765701 0.638239
vt 0.761293 0.633044
vt 0.854229 0.553913
vt 0.858652 0.559108
vt 0.265795 0.621589
vt 0.270575 0.625947
vt 0.087783 0.880351
vt 0.081141 0.875502
vt 0.902008 0.178028
vt 0.904958 0.183899
vt 0.637278 0.317039
vt 0.633968 0.311788
vt 0.101121 0.248020
vt 0.303283 0.490072
vt 0.210892 0.571032
vt 0.006280 0.327241
vt 0.352750 0.547955
vt 0.356996 0.553033
vt 0.366520 0.564719
vt 0.271884 0.639300
vt 0.557952 0.794029
vt 0.464217 0.872227
vt 0.908279 0.190523
vt 0.649660 0.320184
vt 0.562893 0.799945
vt 0.469161 0.878152
vt 0.094074 0.884905
vt 0.756308 0.627173
vt 0.849225 0.548037
vt 0.596441 0.771855
vt 0.591486 0.765954
vt 0.564770 0.399687
vt 0.399791 0.536988
vt 0.554093 0.387397
vt 0.390069 0.525354
vt 0.549383 0.381996
vt 0.385739 0.520187
vt 0.399165 0.006280
vt 0.595550 0.251299
vt 0.501527 0.324742
vt 0.304036 0.082527
vt 0.135000 0.219819
vt 0.336763 0.461696
vt 0.473532 0.883391
vt 0.567265 0.805175
vt 0.732305 0.666491
vt 0.727913 0.661284
vt 0.781652 0.724953
vt 0.777248 0.719733
vt 0.810753 0.691390
vt 0.815171 0.696600
vt 0.738179 0.673454
vt 0.771594 0.645185
vt 0.522581 0.942157
vt 0.518206 0.936917
vt 0.611978 0.858625
vt 0.616358 0.863863
vt 0.479376 0.890395
vt 0.573110 0.812167
vt 0.341144 0.466897
vt 0.307749 0.495255
vt 0.920840 0.051508
vt 0.920840 0.008005
vt 0.925789 0.011466
vt 0.925789 0.053800
vt 0.599139 0.256911
vt 0.505712 0.329969
vt 0.629507 0.304753
vt 0.543620 0.375397
vt 0.215989 0.575747
vt 0.347012 0.541150
vt 0.259384 0.615739
vt 0.868082 0.111546
vt 0.871114 0.117458
vt 0.898038 0.170157
vt 0.023828 0.832933
vt 0.018239 0.828755
vt 0.073688 0.870027
vt 0.903856 0.612226
vt 0.908279 0.617428
vt 0.864567 0.566055
vt 0.934860 0.053800
vt 0.934860 0.011466
vt 0.984439 0.006281
vt 0.991865 0.006281
vt 0.988770 0.011466
vt 0.983407 0.011466
vt 0.931746 0.267343
vt 0.922694 0.267344
vt 0.925789 0.262158
vt 0.934859 0.262158
vt 0.993720 0.222115
vt 0.993720 0.265619
vt 0.988771 0.262158
vt 0.988771 0.219823
vt 0.991865 0.267344
vt 0.984439 0.267344
vt 0.983407 0.262158
vt 0.961382 0.267344
vt 0.962413 0.262158
vt 0.948423 0.006281
vt 0.961382 0.006281
vt 0.962413 0.011466
vt 0.950647 0.011466
vt 0.988770 0.053800
vt 0.983407 0.053800
vt 0.962413 0.053800
vt 0.805910 0.685678
vt 0.899004 0.606521
vt 0.790890 0.667949
vt 0.883934 0.588808
vt 0.221538 0.580872
vt 0.029956 0.837513
vt 0.238258 0.596359
vt 0.049136 0.851829
vt 0.874438 0.123941
vt 0.603042 0.263024
vt 0.884830 0.144219
vt 0.614776 0.281487
vt 0.312635 0.500925
vt 0.327825 0.518619
vt 0.510303 0.335679
vt 0.524787 0.353318
vt 0.513408 0.931171
vt 0.607174 0.852883
vt 0.498513 0.913327
vt 0.592262 0.835062
vt 0.772418 0.714010
vt 0.757427 0.696257
vt 0.922695 0.006280
vt 0.931747 0.006280
vt 0.948423 0.267344
vt 0.950647 0.262158
vt 0.950647 0.053800
vt 0.782450 0.657992
vt 0.875467 0.578858
vt 0.247610 0.604959
vt 0.059845 0.859775
vt 0.890596 0.155537
vt 0.621329 0.291784
vt 0.336215 0.528471
vt 0.532962 0.363030
vt 0.490145 0.903300
vt 0.583886 0.825049
vt 0.749008 0.686283
vt 0.606681 0.784055
vt 0.617474 0.796919
vt 0.625864 0.806919
vt 0.934860 0.219823
vt 0.950647 0.219823
vt 0.944713 0.451548
vt 0.923736 0.451548
vt 0.923736 0.448673
vt 0.944713 0.448674
vt 0.962413 0.219823
vt 0.640796 0.824723
vt 0.645609 0.830459
vt 0.983407 0.219823
vt 0.923735 0.548670
vt 0.939507 0.548670
vt 0.939507 0.551544
vt 0.923735 0.551544
vt 0.993719 0.008005
vt 0.993719 0.051508
vt 0.925789 0.219823
vt 0.920840 0.265619
vt 0.920840 0.222115
vt 0.472201 0.357367
vt 0.467895 0.352152
vt 0.600823 0.777075
vt 0.649999 0.835690
vt 0.270084 0.110073
vt 0.520617 0.415967
vt 0.516224 0.410755
vt 0.530503 0.427787
vt 0.722949 0.655394
vt 0.939507 0.717407
vt 0.923735 0.717407
vt 0.923736 0.282779
vt 0.944713 0.282779
vt 0.920840 0.717407
vt 0.920840 0.551544
vt 0.939507 0.720281
vt 0.923735 0.720281
vt 0.942402 0.551544
vt 0.942402 0.717407
vt 0.923736 0.279904
vt 0.944713 0.279904
vt 0.920840 0.448674
vt 0.920840 0.282779
vt 0.947609 0.282779
vt 0.947609 0.448673
vt 0.956402 0.498347
vt 0.951308 0.522248
vt 0.944514 0.519396
vt 0.937504 0.529931
vt 0.947550 0.534514
vt 0.958818 0.523027
vt 0.958581 0.536109
vt 0.966550 0.521589
vt 0.969760 0.534700
vt 0.974151 0.517850
vt 0.980426 0.530639
vt 0.981635 0.511551
vt 0.990360 0.524660
vt 0.976385 0.485163
vt 0.981251 0.492054
vt 0.990360 0.483799
vt 0.984362 0.477181
vt 0.970944 0.480238
vt 0.977317 0.471054
vt 0.964792 0.476992
vt 0.968873 0.466446
vt 0.958115 0.475539
vt 0.959283 0.464109
vt 0.951316 0.476011
vt 0.949215 0.464536
vt 0.944915 0.478419
vt 0.939537 0.467893
vt 0.939455 0.482609
vt 0.931152 0.474008
vt 0.935433 0.488254
vt 0.924867 0.482408
vt 0.933231 0.494882
vt 0.921305 0.492382
vt 0.933080 0.501921
vt 0.920840 0.503055
vt 0.935028 0.508748
vt 0.923565 0.513475
vt 0.938941 0.514754
vt 0.929278 0.522709
vn -1.0000 0.0000 0.0000
vn 0.0000 0.0000 1.0000
vn 0.0000 0.0000 -1.0000
vn 0.0000 -1.0000 0.0000
vn 1.0000 -0.0000 -0.0000
vn 0.5034 0.8641 -0.0000
vn 0.0000 1.0000 0.0000
vn 0.6254 0.7803 0.0000
vn 0.6674 0.0000 0.7447
vn 0.6674 0.0000 -0.7447
vn 0.6254 -0.7803 0.0000
vn 0.0000 -0.1737 -0.9848
vn 0.0000 -0.5000 -0.8660
vn 0.0000 -0.7660 -0.6428
vn 0.0000 -0.9397 -0.3420
vn 0.0000 -0.9397 0.3420
vn 0.0000 -0.7660 0.6428
vn 0.0000 -0.5000 0.8660
vn 0.0000 -0.1736 0.9848
vn 0.0000 0.1736 0.9848
vn 0.0000 0.5000 0.8660
vn 0.0000 0.7660 0.6428
vn 0.0000 0.9397 0.3420
vn 0.0000 0.9397 -0.3420
vn 0.0000 0.7660 -0.6428
vn 0.0000 0.5000 -0.8660
vn 0.0000 0.1737 -0.9848
usemtl VHSPlayer_mtl
s off
f 39/1/1 23/2/1 11/3/1 25/4/1
f 29/5/2 7/6/2 12/7/2 32/8/2
f 25/9/3 11/10/3 10/11/3 28/12/3
f 14/13/4 17/14/4 5/15/4 1/16/4
f 35/17/5 21/18/5 7/6/5 29/5/5
f 20/19/6 8/20/6 7/6/6 21/18/6
f 20/19/7 15/21/7 2/22/7 8/20/7
f 10/11/3 11/10/3 4/23/3 9/24/3
f 24/25/1 12/26/1 2/22/1 15/21/1
f 12/7/2 7/6/2 8/20/2 2/27/2
f 11/3/1 23/2/1 16/28/1 4/29/1
f 96/30/1 24/25/1 15/21/1 87/31/1
f 9/24/7 4/29/7 16/28/7 19/32/7
f 92/33/7 87/31/7 15/21/7 20/19/7
f 9/24/6 19/32/6 22/34/6 10/11/6
f 92/33/6 20/19/6 21/18/6 93/35/6
f 28/12/5 10/11/5 22/34/5 33/36/5
f 104/37/5 93/35/5 21/18/5 35/17/5
f 3/38/4 6/39/4 18/40/4 13/41/4
f 86/42/4 89/43/4 17/14/4 14/13/4
f 32/44/1 12/26/1 24/25/1 37/45/1
f 100/46/1 95/47/1 23/2/1 39/1/1
f 85/48/1 98/49/1 40/50/1 13/51/1
f 124/52/1 100/46/1 39/1/1 79/53/1
f 1/54/1 31/55/1 38/56/1 14/57/1
f 68/58/1 32/44/1 37/45/1 77/59/1
f 89/43/5 102/60/5 36/61/5 17/14/5
f 104/62/8 35/63/8 43/64/8 108/65/8
f 6/39/5 27/66/5 34/67/5 18/40/5
f 66/68/5 28/12/5 33/36/5 73/69/5
f 17/14/5 36/61/5 30/70/5 5/15/5
f 75/71/5 35/17/5 29/5/5 71/72/5
f 3/73/3 26/74/3 27/66/3 6/39/3
f 69/75/3 25/9/3 28/12/3 66/68/3
f 5/15/2 30/70/2 31/76/2 1/77/2
f 71/72/2 29/5/2 32/8/2 68/78/2
f 13/51/1 40/50/1 26/79/1 3/80/1
f 79/53/1 39/1/1 25/4/1 69/81/1
f 120/82/5 108/65/5 43/64/5 83/83/5
f 56/84/9 36/85/9 44/86/9 64/87/9
f 73/88/10 33/89/10 41/90/10 81/91/10
f 101/92/11 34/93/11 42/94/11 105/95/11
f 34/96/10 54/97/10 62/98/10 42/94/10
f 54/97/10 53/99/10 61/100/10 62/98/10
f 76/101/9 55/102/9 63/103/9 84/104/9
f 55/102/9 56/84/9 64/87/9 63/103/9
f 106/105/5 110/106/5 64/87/5 44/86/5
f 110/106/5 112/107/5 63/103/5 64/87/5
f 40/50/1 60/108/1 46/109/1 26/79/1
f 60/108/1 59/110/1 45/111/1 46/109/1
f 30/70/2 50/112/2 51/113/2 31/76/2
f 50/112/2 49/114/2 52/115/2 51/113/2
f 26/74/3 46/116/3 47/117/3 27/66/3
f 46/116/3 45/118/3 48/119/3 47/117/3
f 36/61/5 56/120/5 50/112/5 30/70/5
f 56/120/5 55/121/5 49/114/5 50/112/5
f 27/66/5 47/117/5 54/122/5 34/67/5
f 47/117/5 48/119/5 53/123/5 54/122/5
f 31/55/1 51/124/1 58/125/1 38/56/1
f 51/124/1 52/126/1 57/127/1 58/125/1
f 98/49/1 114/128/1 60/108/1 40/50/1
f 114/128/1 116/129/1 59/110/1 60/108/1
f 35/130/9 75/131/9 83/83/9 43/64/9
f 75/131/9 76/101/9 84/104/9 83/83/9
f 53/99/10 74/132/10 82/133/10 61/100/10
f 74/132/10 73/88/10 81/91/10 82/133/10
f 112/107/5 118/134/5 84/104/5 63/103/5
f 118/134/5 120/82/5 83/83/5 84/104/5
f 59/110/1 80/135/1 70/136/1 45/111/1
f 80/135/1 79/53/1 69/81/1 70/136/1
f 49/114/2 72/137/2 67/138/2 52/115/2
f 72/137/2 71/72/2 68/78/2 67/138/2
f 45/118/3 70/139/3 65/140/3 48/119/3
f 70/139/3 69/75/3 66/68/3 65/140/3
f 55/121/5 76/141/5 72/137/5 49/114/5
f 76/141/5 75/71/5 71/72/5 72/137/5
f 48/119/5 65/140/5 74/142/5 53/123/5
f 65/140/5 66/68/5 73/69/5 74/142/5
f 52/126/1 67/143/1 78/144/1 57/127/1
f 67/143/1 68/58/1 77/59/1 78/144/1
f 116/129/1 122/145/1 80/135/1 59/110/1
f 122/145/1 124/52/1 79/53/1 80/135/1
f 78/144/1 77/59/1 123/146/1 121/147/1
f 121/147/1 123/146/1 124/52/1 122/145/1
f 57/127/1 78/144/1 121/147/1 115/148/1
f 115/148/1 121/147/1 122/145/1 116/129/1
f 82/133/5 81/91/5 119/149/5 117/150/5
f 109/151/3 111/152/3 127/153/3 125/154/3
f 61/100/5 82/133/5 117/150/5 111/155/5
f 111/155/5 117/150/5 118/134/5 112/107/5
f 58/125/1 57/127/1 115/148/1 113/156/1
f 113/156/1 115/148/1 116/129/1 114/128/1
f 38/56/1 58/125/1 113/156/1 97/157/1
f 97/157/1 113/156/1 114/128/1 98/49/1
f 62/98/5 61/100/5 111/155/5 109/158/5
f 120/159/2 118/160/2 130/161/2 132/162/2
f 42/94/5 62/98/5 109/158/5 105/95/5
f 105/95/5 109/158/5 110/106/5 106/105/5
f 36/163/11 102/164/11 106/105/11 44/86/11
f 102/164/11 101/92/11 105/95/11 106/105/11
f 81/91/5 41/90/5 107/165/5 119/149/5
f 119/149/5 107/165/5 108/65/5 120/82/5
f 33/166/8 103/167/8 107/165/8 41/90/8
f 103/167/8 104/62/8 108/65/8 107/165/8
f 18/40/5 34/67/5 101/168/5 90/169/5
f 90/169/5 101/168/5 102/60/5 89/43/5
f 77/59/1 37/45/1 99/170/1 123/146/1
f 123/146/1 99/170/1 100/46/1 124/52/1
f 14/57/1 38/56/1 97/157/1 86/171/1
f 86/171/1 97/157/1 98/49/1 85/48/1
f 37/45/1 24/25/1 96/30/1 99/170/1
f 99/170/1 96/30/1 95/47/1 100/46/1
f 13/41/4 18/40/4 90/169/4 85/172/4
f 85/172/4 90/169/4 89/43/4 86/42/4
f 33/36/5 22/34/5 94/173/5 103/174/5
f 103/174/5 94/173/5 93/35/5 104/37/5
f 19/32/6 91/175/6 94/173/6 22/34/6
f 91/175/6 92/33/6 93/35/6 94/173/6
f 19/32/7 16/28/7 88/176/7 91/175/7
f 91/175/7 88/176/7 87/31/7 92/33/7
f 23/2/1 95/47/1 88/176/1 16/28/1
f 95/47/1 96/30/1 87/31/1 88/176/1
f 129/177/5 131/178/5 132/162/5 130/161/5
f 125/154/5 127/153/5 128/179/5 126/180/5
f 119/181/7 120/182/7 132/162/7 131/178/7
f 117/183/3 119/184/3 131/178/3 129/177/3
f 118/185/4 117/186/4 129/177/4 130/161/4
f 112/187/2 110/188/2 126/180/2 128/179/2
f 111/189/7 112/190/7 128/179/7 127/153/7
f 110/191/4 109/192/4 125/154/4 126/180/4
f 133/193/5 137/194/5 135/195/5
f 134/196/12 135/195/12 137/194/12 136/197/12
f 133/193/5 139/198/5 137/194/5
f 136/197/13 137/194/13 139/198/13 138/199/13
f 133/193/5 141/200/5 139/198/5
f 138/199/14 139/198/14 141/200/14 140/201/14
f 133/193/5 143/202/5 141/200/5
f 140/201/15 141/200/15 143/202/15 142/203/15
f 133/193/5 145/204/5 143/202/5
f 142/203/4 143/202/4 145/204/4 144/205/4
f 133/193/5 147/206/5 145/207/5
f 144/208/16 145/207/16 147/206/16 146/209/16
f 133/193/5 149/210/5 147/206/5
f 146/209/17 147/206/17 149/210/17 148/211/17
f 133/193/5 151/212/5 149/210/5
f 148/211/18 149/210/18 151/212/18 150/213/18
f 133/193/5 153/214/5 151/212/5
f 150/213/19 151/212/19 153/214/19 152/215/19
f 133/193/5 155/216/5 153/214/5
f 152/215/20 153/214/20 155/216/20 154/217/20
f 133/193/5 157/218/5 155/216/5
f 154/217/21 155/216/21 157/218/21 156/219/21
f 133/193/5 159/220/5 157/218/5
f 156/219/22 157/218/22 159/220/22 158/221/22
f 133/193/5 161/222/5 159/220/5
f 158/221/23 159/220/23 161/222/23 160/223/23
f 133/193/5 163/224/5 161/222/5
f 160/223/7 161/222/7 163/224/7 162/225/7
f 133/193/5 165/226/5 163/224/5
f 162/225/24 163/224/24 165/226/24 164/227/24
f 133/193/5 167/228/5 165/226/5
f 164/227/25 165/226/25 167/228/25 166/229/25
f 133/193/5 169/230/5 167/228/5
f 166/229/26 167/228/26 169/230/26 168/231/26
f 133/193/5 135/195/5 169/230/5
f 168/231/27 169/230/27 135/195/27 134/196/27
