# Blender v2.83.3 OBJ File: 'Vhstapes.blend'
# www.blender.org
mtllib Wall_Shelf_A.mtl
o Wall_Shelf_A_Cube.021
v -0.185885 0.066589 0.957164
v -0.362783 0.516282 0.957164
v -0.262098 0.036609 0.957164
v -0.438996 0.486302 0.957164
v -0.185885 0.066589 -0.960227
v -0.362783 0.516282 -0.960227
v -0.262098 0.036609 -0.960227
v -0.438996 0.486302 -0.960227
v -0.221930 0.158219 0.957164
v -0.298143 0.128238 0.957164
v -0.298143 0.128238 -0.960227
v -0.221930 0.158218 -0.960227
v 0.330491 0.375527 -0.960227
v 0.366536 0.283897 -0.960227
v 0.366536 0.283897 0.957164
v 0.330492 0.375527 0.957164
v -1.000000 -0.006631 0.997119
v -1.000000 0.907721 0.997119
v -1.000000 -0.006631 0.915222
v -1.000000 0.907721 0.915222
v 1.000000 -0.006631 0.997119
v 1.000000 0.907721 0.997119
v 1.000000 -0.006631 0.915222
v 1.000000 0.907721 0.915222
v -1.000000 -0.006631 -0.916909
v -1.000000 0.907721 -0.916909
v -1.000000 -0.006631 -0.998806
v -1.000000 0.907721 -0.998806
v 1.000000 -0.006631 -0.916909
v 1.000000 0.907721 -0.916909
v 1.000000 -0.006631 -0.998806
v 1.000000 0.907721 -0.998806
v -0.185885 0.980941 0.957164
v -0.362783 1.430635 0.957164
v -0.262098 0.950961 0.957164
v -0.438996 1.400655 0.957164
v -0.185885 0.980941 -0.960227
v -0.362783 1.430634 -0.960227
v -0.262098 0.950961 -0.960227
v -0.438996 1.400655 -0.960227
v -0.221930 1.072571 0.957164
v -0.298143 1.042591 0.957164
v -0.298143 1.042591 -0.960227
v -0.221930 1.072571 -0.960227
v 0.330491 1.289879 -0.960227
v 0.366536 1.198249 -0.960227
v 0.366536 1.198249 0.957164
v 0.330492 1.289879 0.957164
v -1.000000 1.822073 0.997119
v -1.000000 1.822073 0.915222
v 1.000000 1.822073 0.997119
v 1.000000 1.822073 0.915222
v -1.000000 1.822073 -0.916909
v -1.000000 1.822073 -0.998806
v 1.000000 1.822073 -0.916909
v 1.000000 1.822073 -0.998806
v -0.185885 1.895293 0.957164
v -0.362783 2.344987 0.957164
v -0.262098 1.865313 0.957164
v -0.438996 2.315007 0.957164
v -0.185885 1.895293 -0.960227
v -0.362783 2.344987 -0.960227
v -0.262098 1.865313 -0.960227
v -0.438996 2.315007 -0.960227
v -0.221930 1.986923 0.957164
v -0.298143 1.956943 0.957164
v -0.298143 1.956943 -0.960227
v -0.221930 1.986923 -0.960227
v 0.330491 2.204231 -0.960227
v 0.366536 2.112602 -0.960227
v 0.366536 2.112602 0.957164
v 0.330492 2.204231 0.957164
v -1.000000 2.736425 0.997119
v -1.000000 2.736425 0.915222
v 1.000000 2.736425 0.997119
v 1.000000 2.736425 0.915222
v -1.000000 2.736425 -0.916909
v -1.000000 2.736425 -0.998806
v 1.000000 2.736425 -0.916909
v 1.000000 2.736425 -0.998806
v -0.185885 2.809646 0.957164
v -0.362783 3.259339 0.957164
v -0.262098 2.779666 0.957164
v -0.438996 3.229359 0.957164
v -0.185885 2.809646 -0.960227
v -0.362783 3.259339 -0.960227
v -0.262098 2.779666 -0.960227
v -0.438996 3.229359 -0.960227
v -0.221930 2.901275 0.957164
v -0.298143 2.871295 0.957164
v -0.298143 2.871295 -0.960227
v -0.221930 2.901275 -0.960227
v 0.330491 3.118584 -0.960227
v 0.366536 3.026954 -0.960227
v 0.366536 3.026954 0.957164
v 0.330492 3.118584 0.957164
v -1.000000 3.650778 0.997119
v -1.000000 3.650778 0.915222
v 1.000000 3.650778 0.997119
v 1.000000 3.650778 0.915222
v -1.000000 3.650778 -0.916909
v -1.000000 3.650778 -0.998806
v 1.000000 3.650778 -0.916909
v 1.000000 3.650778 -0.998806
v -0.185885 3.723998 0.957164
v -0.362783 4.173691 0.957164
v -0.262098 3.694018 0.957164
v -0.438996 4.143711 0.957164
v -0.185885 3.723998 -0.960227
v -0.362783 4.173691 -0.960227
v -0.262098 3.694018 -0.960227
v -0.438996 4.143711 -0.960227
v -0.221930 3.815628 0.957164
v -0.298143 3.785647 0.957164
v -0.298143 3.785647 -0.960227
v -0.221930 3.815628 -0.960227
v 0.330491 4.032936 -0.960227
v 0.366536 3.941306 -0.960227
v 0.366536 3.941306 0.957164
v 0.330492 4.032936 0.957164
v -1.000000 4.565130 0.997119
v -1.000000 4.565130 0.915222
v 1.000000 4.565130 0.997119
v 1.000000 4.565130 0.915222
v -1.000000 4.565130 -0.916909
v -1.000000 4.565130 -0.998806
v 1.000000 4.565130 -0.916909
v 1.000000 4.565130 -0.998806
vt 0.287842 0.814945
vt 0.294127 0.814945
vt 0.294127 0.827516
vt 0.287842 0.827516
vt 0.294127 0.840088
vt 0.287842 0.840088
vt 0.294127 0.852659
vt 0.287842 0.852659
vt 0.294127 0.865231
vt 0.287842 0.865231
vt 0.268985 0.840088
vt 0.281556 0.840088
vt 0.281556 0.852659
vt 0.268985 0.852659
vt 0.306699 0.840088
vt 0.306699 0.852659
vt 0.287842 0.865231
vt 0.287842 0.852659
vt 0.281556 0.827516
vt 0.281556 0.814945
vt 0.281556 0.852659
vt 0.281556 0.865231
vt 0.281556 0.814945
vt 0.287842 0.814945
vt 0.268985 0.852659
vt 0.342838 0.945306
vt 0.342838 0.928902
vt 0.349509 0.928902
vt 0.349509 0.945306
vt 0.263412 0.819294
vt 0.270514 0.815822
vt 0.270514 0.832054
vt 0.265040 0.829880
vt 0.356381 0.863288
vt 0.356381 0.879691
vt 0.349710 0.879691
vt 0.349710 0.863288
vt 0.368265 0.836270
vt 0.368265 0.862697
vt 0.338901 0.862697
vt 0.338901 0.836270
vt 0.264618 0.830257
vt 0.262721 0.818914
vt 0.285021 0.846319
vt 0.285021 0.832607
vt 0.285583 0.832607
vt 0.285583 0.846319
vt 0.335967 0.945306
vt 0.335967 0.928902
vt 0.342638 0.928902
vt 0.342638 0.945306
vt 0.374719 0.823924
vt 0.374718 0.854306
vt 0.338432 0.854306
vt 0.338432 0.823924
vt 0.363252 0.863288
vt 0.363252 0.879691
vt 0.356581 0.879691
vt 0.356581 0.863288
vt 0.271249 0.819294
vt 0.278351 0.815822
vt 0.278351 0.832054
vt 0.272877 0.829880
vt 0.272455 0.830257
vt 0.270558 0.818914
vt 0.269639 0.846319
vt 0.269639 0.832607
vt 0.270200 0.832607
vt 0.270200 0.846319
vt 0.287842 0.814945
vt 0.294127 0.814945
vt 0.294127 0.827516
vt 0.287842 0.827516
vt 0.294127 0.840088
vt 0.287842 0.840088
vt 0.294127 0.852659
vt 0.287842 0.852659
vt 0.294127 0.865231
vt 0.287842 0.865231
vt 0.268985 0.840088
vt 0.281556 0.840088
vt 0.281556 0.852659
vt 0.268985 0.852659
vt 0.306699 0.840088
vt 0.306699 0.852659
vt 0.287842 0.865231
vt 0.287842 0.852659
vt 0.281556 0.827516
vt 0.281556 0.814945
vt 0.281556 0.852659
vt 0.281556 0.865231
vt 0.281556 0.814945
vt 0.287842 0.814945
vt 0.268985 0.852659
vt 0.342838 0.912499
vt 0.349509 0.912499
vt 0.272083 0.833169
vt 0.278351 0.833169
vt 0.278351 0.846880
vt 0.272083 0.846880
vt 0.356381 0.896095
vt 0.349710 0.896095
vt 0.368265 0.889124
vt 0.338901 0.889124
vt 0.270266 0.846319
vt 0.270266 0.832607
vt 0.270828 0.832607
vt 0.270828 0.846319
vt 0.335967 0.912499
vt 0.342638 0.912499
vt 0.374718 0.884687
vt 0.338432 0.884687
vt 0.363252 0.896095
vt 0.356581 0.896095
vt 0.263282 0.853754
vt 0.263282 0.847485
vt 0.276994 0.847485
vt 0.276994 0.853754
vt 0.269033 0.846319
vt 0.269033 0.832607
vt 0.269595 0.832607
vt 0.269595 0.846319
vt 0.287842 0.814945
vt 0.294127 0.814945
vt 0.294127 0.827516
vt 0.287842 0.827516
vt 0.294127 0.840088
vt 0.287842 0.840088
vt 0.294127 0.852659
vt 0.287842 0.852659
vt 0.294127 0.865231
vt 0.287842 0.865231
vt 0.268985 0.840088
vt 0.281556 0.840088
vt 0.281556 0.852659
vt 0.268985 0.852659
vt 0.306699 0.840088
vt 0.306699 0.852659
vt 0.287842 0.865231
vt 0.287842 0.852659
vt 0.281556 0.827516
vt 0.281556 0.814945
vt 0.281556 0.852659
vt 0.281556 0.865231
vt 0.281556 0.814945
vt 0.287842 0.814945
vt 0.268985 0.852659
vt 0.342838 0.896095
vt 0.349509 0.896095
vt 0.284664 0.833169
vt 0.284664 0.846880
vt 0.356381 0.912499
vt 0.349710 0.912499
vt 0.368265 0.915552
vt 0.338901 0.915552
vt 0.287151 0.846319
vt 0.287151 0.832607
vt 0.287713 0.832607
vt 0.287713 0.846319
vt 0.335967 0.896095
vt 0.342638 0.896095
vt 0.374719 0.915068
vt 0.338432 0.915068
vt 0.363252 0.912499
vt 0.356581 0.912499
vt 0.262721 0.833169
vt 0.268990 0.833169
vt 0.268990 0.846880
vt 0.262721 0.846880
vt 0.271477 0.846319
vt 0.271477 0.832607
vt 0.272039 0.832607
vt 0.272039 0.846319
vt 0.287842 0.814945
vt 0.294127 0.814945
vt 0.294127 0.827516
vt 0.287842 0.827516
vt 0.294127 0.840088
vt 0.287842 0.840088
vt 0.294127 0.852659
vt 0.287842 0.852659
vt 0.294127 0.865231
vt 0.287842 0.865231
vt 0.268985 0.840088
vt 0.281556 0.840088
vt 0.281556 0.852659
vt 0.268985 0.852659
vt 0.306699 0.840088
vt 0.306699 0.852659
vt 0.287842 0.865231
vt 0.287842 0.852659
vt 0.281556 0.827516
vt 0.281556 0.814945
vt 0.281556 0.852659
vt 0.281556 0.865231
vt 0.281556 0.814945
vt 0.287842 0.814945
vt 0.268985 0.852659
vt 0.342838 0.879691
vt 0.349509 0.879691
vt 0.294069 0.830407
vt 0.300338 0.830407
vt 0.300338 0.844118
vt 0.294069 0.844118
vt 0.356381 0.928902
vt 0.349710 0.928902
vt 0.368265 0.941979
vt 0.338901 0.941979
vt 0.285627 0.846319
vt 0.285627 0.832607
vt 0.286188 0.832607
vt 0.286188 0.846319
vt 0.335967 0.879691
vt 0.342638 0.879691
vt 0.374719 0.945449
vt 0.338432 0.945449
vt 0.363252 0.928902
vt 0.356581 0.928902
vt 0.300338 0.829240
vt 0.294069 0.829240
vt 0.294069 0.815528
vt 0.300338 0.815528
vt 0.270872 0.846319
vt 0.270872 0.832607
vt 0.271433 0.832607
vt 0.271433 0.846319
vt 0.287842 0.814945
vt 0.294127 0.814945
vt 0.294127 0.827516
vt 0.287842 0.827516
vt 0.294127 0.840088
vt 0.287842 0.840088
vt 0.294127 0.852659
vt 0.287842 0.852659
vt 0.294127 0.865231
vt 0.287842 0.865231
vt 0.268985 0.840088
vt 0.281556 0.840088
vt 0.281556 0.852659
vt 0.268985 0.852659
vt 0.306699 0.840088
vt 0.306699 0.852659
vt 0.287842 0.865231
vt 0.287842 0.852659
vt 0.281556 0.827516
vt 0.281556 0.814945
vt 0.281556 0.852659
vt 0.281556 0.865231
vt 0.281556 0.814945
vt 0.287842 0.814945
vt 0.268985 0.852659
vt 0.342838 0.863288
vt 0.349509 0.863288
vt 0.294025 0.832054
vt 0.288551 0.829880
vt 0.286923 0.819294
vt 0.294025 0.815822
vt 0.356381 0.945306
vt 0.349710 0.945306
vt 0.368265 0.968406
vt 0.338901 0.968406
vt 0.288129 0.830257
vt 0.286232 0.818914
vt 0.335967 0.863288
vt 0.342638 0.863288
vt 0.374719 0.975830
vt 0.338432 0.975830
vt 0.363252 0.945306
vt 0.356581 0.945306
vt 0.286188 0.832054
vt 0.280714 0.829880
vt 0.279086 0.819294
vt 0.286188 0.815822
vt 0.280292 0.830257
vt 0.278395 0.818914
vn 0.0000 0.0000 1.0000
vn -0.9306 -0.3661 0.0000
vn 0.0000 0.0000 -1.0000
vn 0.9306 0.3661 -0.0000
vn 0.3661 -0.9306 -0.0000
vn -0.3661 0.9306 -0.0000
vn -1.0000 -0.0000 0.0000
vn 1.0000 0.0000 0.0000
vn -0.0000 -1.0000 0.0000
vn -0.0000 1.0000 0.0000
usemtl Colors_and_Textures
s off
f 9/1/1 2/2/1 4/3/1 10/4/1
f 10/4/2 4/3/2 8/5/2 11/6/2
f 11/6/3 8/5/3 6/7/3 12/8/3
f 12/8/4 6/7/4 2/9/4 9/10/4
f 3/11/5 7/12/5 5/13/5 1/14/5
f 8/5/6 4/15/6 2/16/6 6/7/6
f 12/8/6 9/10/6 16/17/6 13/18/6
f 7/12/3 11/6/3 12/8/3 5/13/3
f 3/19/2 10/4/2 11/6/2 7/12/2
f 1/20/1 9/1/1 10/4/1 3/19/1
f 14/21/4 13/18/4 16/17/4 15/22/4
f 9/1/1 1/20/1 15/23/1 16/24/1
f 1/14/5 5/13/5 14/21/5 15/25/5
f 5/13/3 12/8/3 13/18/3 14/21/3
f 17/26/7 18/27/7 20/28/7 19/29/7
f 19/30/3 20/31/3 24/32/3 23/33/3
f 23/34/8 24/35/8 22/36/8 21/37/8
f 21/38/1 22/39/1 18/40/1 17/41/1
f 19/30/9 23/33/9 21/42/9 17/43/9
f 24/44/10 20/45/10 18/46/10 22/47/10
f 25/48/7 26/49/7 28/50/7 27/51/7
f 27/52/3 28/53/3 32/54/3 31/55/3
f 31/56/8 32/57/8 30/58/8 29/59/8
f 29/60/1 30/61/1 26/62/1 25/63/1
f 27/64/9 31/65/9 29/60/9 25/63/9
f 32/66/10 28/67/10 26/68/10 30/69/10
f 41/70/1 34/71/1 36/72/1 42/73/1
f 42/73/2 36/72/2 40/74/2 43/75/2
f 43/75/3 40/74/3 38/76/3 44/77/3
f 44/77/4 38/76/4 34/78/4 41/79/4
f 35/80/5 39/81/5 37/82/5 33/83/5
f 40/74/6 36/84/6 34/85/6 38/76/6
f 44/77/6 41/79/6 48/86/6 45/87/6
f 39/81/3 43/75/3 44/77/3 37/82/3
f 35/88/2 42/73/2 43/75/2 39/81/2
f 33/89/1 41/70/1 42/73/1 35/88/1
f 46/90/4 45/87/4 48/86/4 47/91/4
f 41/70/1 33/89/1 47/92/1 48/93/1
f 33/83/5 37/82/5 46/90/5 47/94/5
f 37/82/3 44/77/3 45/87/3 46/90/3
f 18/27/7 49/95/7 50/96/7 20/28/7
f 20/97/3 50/98/3 52/99/3 24/100/3
f 24/35/8 52/101/8 51/102/8 22/36/8
f 22/39/1 51/103/1 49/104/1 18/40/1
f 52/105/10 50/106/10 49/107/10 51/108/10
f 26/49/7 53/109/7 54/110/7 28/50/7
f 28/53/3 54/111/3 56/112/3 32/54/3
f 32/57/8 56/113/8 55/114/8 30/58/8
f 30/115/1 55/116/1 53/117/1 26/118/1
f 56/119/10 54/120/10 53/121/10 55/122/10
f 65/123/1 58/124/1 60/125/1 66/126/1
f 66/126/2 60/125/2 64/127/2 67/128/2
f 67/128/3 64/127/3 62/129/3 68/130/3
f 68/130/4 62/129/4 58/131/4 65/132/4
f 59/133/5 63/134/5 61/135/5 57/136/5
f 64/127/6 60/137/6 58/138/6 62/129/6
f 68/130/6 65/132/6 72/139/6 69/140/6
f 63/134/3 67/128/3 68/130/3 61/135/3
f 59/141/2 66/126/2 67/128/2 63/134/2
f 57/142/1 65/123/1 66/126/1 59/141/1
f 70/143/4 69/140/4 72/139/4 71/144/4
f 65/123/1 57/142/1 71/145/1 72/146/1
f 57/136/5 61/135/5 70/143/5 71/147/5
f 61/135/3 68/130/3 69/140/3 70/143/3
f 49/95/7 73/148/7 74/149/7 50/96/7
f 50/98/3 74/150/3 76/151/3 52/99/3
f 52/101/8 76/152/8 75/153/8 51/102/8
f 51/103/1 75/154/1 73/155/1 49/104/1
f 76/156/10 74/157/10 73/158/10 75/159/10
f 53/109/7 77/160/7 78/161/7 54/110/7
f 54/111/3 78/162/3 80/163/3 56/112/3
f 56/113/8 80/164/8 79/165/8 55/114/8
f 55/166/1 79/167/1 77/168/1 53/169/1
f 80/170/10 78/171/10 77/172/10 79/173/10
f 89/174/1 82/175/1 84/176/1 90/177/1
f 90/177/2 84/176/2 88/178/2 91/179/2
f 91/179/3 88/178/3 86/180/3 92/181/3
f 92/181/4 86/180/4 82/182/4 89/183/4
f 83/184/5 87/185/5 85/186/5 81/187/5
f 88/178/6 84/188/6 82/189/6 86/180/6
f 92/181/6 89/183/6 96/190/6 93/191/6
f 87/185/3 91/179/3 92/181/3 85/186/3
f 83/192/2 90/177/2 91/179/2 87/185/2
f 81/193/1 89/174/1 90/177/1 83/192/1
f 94/194/4 93/191/4 96/190/4 95/195/4
f 89/174/1 81/193/1 95/196/1 96/197/1
f 81/187/5 85/186/5 94/194/5 95/198/5
f 85/186/3 92/181/3 93/191/3 94/194/3
f 73/148/7 97/199/7 98/200/7 74/149/7
f 74/201/3 98/202/3 100/203/3 76/204/3
f 76/152/8 100/205/8 99/206/8 75/153/8
f 75/154/1 99/207/1 97/208/1 73/155/1
f 100/209/10 98/210/10 97/211/10 99/212/10
f 77/160/7 101/213/7 102/214/7 78/161/7
f 78/162/3 102/215/3 104/216/3 80/163/3
f 80/164/8 104/217/8 103/218/8 79/165/8
f 79/219/1 103/220/1 101/221/1 77/222/1
f 104/223/10 102/224/10 101/225/10 103/226/10
f 113/227/1 106/228/1 108/229/1 114/230/1
f 114/230/2 108/229/2 112/231/2 115/232/2
f 115/232/3 112/231/3 110/233/3 116/234/3
f 116/234/4 110/233/4 106/235/4 113/236/4
f 107/237/5 111/238/5 109/239/5 105/240/5
f 112/231/6 108/241/6 106/242/6 110/233/6
f 116/234/6 113/236/6 120/243/6 117/244/6
f 111/238/3 115/232/3 116/234/3 109/239/3
f 107/245/2 114/230/2 115/232/2 111/238/2
f 105/246/1 113/227/1 114/230/1 107/245/1
f 118/247/4 117/244/4 120/243/4 119/248/4
f 113/227/1 105/246/1 119/249/1 120/250/1
f 105/240/5 109/239/5 118/247/5 119/251/5
f 109/239/3 116/234/3 117/244/3 118/247/3
f 97/199/7 121/252/7 122/253/7 98/200/7
f 98/254/3 122/255/3 124/256/3 100/257/3
f 100/205/8 124/258/8 123/259/8 99/206/8
f 99/207/1 123/260/1 121/261/1 97/208/1
f 124/256/10 122/255/10 121/262/10 123/263/10
f 101/213/7 125/264/7 126/265/7 102/214/7
f 102/215/3 126/266/3 128/267/3 104/216/3
f 104/217/8 128/268/8 127/269/8 103/218/8
f 103/270/1 127/271/1 125/272/1 101/273/1
f 128/274/10 126/275/10 125/272/10 127/271/10
